<svg width="100.000000" height="100.000000" viewBox="0 0 100 100" fill="none" xmlns="http://www.w3.org/2000/svg" xmlns:xlink="http://www.w3.org/1999/xlink">
	<desc>
			Created with Pixso.
	</desc>
	<defs>
		<clipPath id="clip380_4456">
			<rect id="AGTECH" width="100.000000" height="100.000000" fill="white" fill-opacity="0"/>
		</clipPath>
	</defs>
	<rect id="AGTECH" width="100.000000" height="100.000000" fill="#FFFFFF" fill-opacity="0"/>
	<g clip-path="url(#clip380_4456)">
		<path id="Vector" d="M65.57 31.34L58.02 31.34L56.11 28.26L52.4 22.51L43.6 36.18L39.55 42.52L36.25 47.68L32.19 53.99L28.86 59.15L24.81 65.5L17.3 65.5L21.35 59.15L24.65 53.99L28.7 47.68L32 42.52L48.63 16.66L56.17 16.66L59.85 22.41L63.62 28.26L65.57 31.34ZM87.5 65.5L31.78 65.5L36.28 59.15L39.58 53.99L43.63 47.68L46.96 42.52L51.02 36.18L68.71 36.18L72.76 42.52L54.47 42.52L51.17 47.68L47.12 53.99L43.82 59.15L75.91 59.15L72.61 53.99L53.66 53.99L57.87 47.68L76.06 47.68L80.15 53.99L83.45 59.15L87.5 65.5ZM22.14 83.38L21.23 81.74L16.23 81.74L17.45 79.45L20.03 79.45L18.21 76.02L14.28 83.38L11.11 83.38L16.57 73.48C16.86 72.94 17.3 72.69 17.86 72.69L18.52 72.69C19.06 72.69 19.5 72.94 19.78 73.48L25.25 83.38L22.14 83.38ZM30.5 83.38Q29.27 83.38 28.23 83C27.54 82.75 26.94 82.37 26.44 81.9C25.94 81.46 25.53 80.89 25.25 80.23C24.96 79.58 24.84 78.85 24.84 78.04C24.84 77.25 24.96 76.5 25.25 75.87C25.53 75.21 25.94 74.64 26.44 74.17C26.94 73.7 27.54 73.32 28.23 73.07C28.92 72.82 29.68 72.69 30.5 72.69L36.22 72.69L36.22 75.43L30.31 75.43C29.93 75.43 29.58 75.49 29.27 75.62C28.92 75.74 28.67 75.93 28.42 76.15C28.2 76.4 28.01 76.65 27.89 77C27.76 77.31 27.7 77.66 27.7 78.04C27.7 78.41 27.76 78.76 27.89 79.1C28.01 79.42 28.2 79.67 28.42 79.89C28.67 80.14 28.92 80.3 29.27 80.42C29.58 80.55 29.93 80.61 30.31 80.61L33.48 80.61L33.48 79.17L30.02 79.17L30.02 76.87L36.22 76.87L36.22 83.38L30.5 83.38ZM45.83 83.38L45.83 75.43L41.87 75.43L41.87 72.69L52.62 72.69L52.62 75.43L48.69 75.43L48.69 83.38L45.83 83.38ZM53.88 83.38L53.88 72.69L64.12 72.69L64.12 75.43L56.74 75.43L56.74 80.61L64.15 80.61L64.15 83.38L53.88 83.38ZM71.16 83.38C70.31 83.38 69.56 83.25 68.87 83C68.17 82.75 67.58 82.37 67.11 81.9C66.6 81.46 66.19 80.89 65.91 80.23C65.63 79.58 65.47 78.85 65.47 78.04C65.47 77.25 65.63 76.5 65.91 75.87C66.19 75.21 66.6 74.64 67.11 74.17C67.58 73.7 68.17 73.32 68.87 73.07C69.56 72.82 70.31 72.69 71.16 72.69L76.38 72.69L76.38 75.43L70.94 75.43C70.56 75.43 70.22 75.49 69.9 75.62C69.59 75.74 69.31 75.93 69.09 76.15C68.87 76.4 68.68 76.65 68.55 77C68.43 77.31 68.36 77.66 68.36 78.04C68.36 78.41 68.43 78.76 68.55 79.1C68.68 79.42 68.87 79.67 69.09 79.89C69.31 80.14 69.59 80.3 69.9 80.42C70.22 80.55 70.56 80.61 70.94 80.61L76.38 80.61L76.38 83.38L71.16 83.38ZM77.98 83.38L77.98 72.69L80.87 72.69L80.87 83.38L77.98 83.38ZM86.02 83.38L86.02 79.23L81.84 79.23L81.84 76.62L86.02 76.62L86.02 72.69L88.88 72.69L88.88 83.38L86.02 83.38ZM57.71 79.17L57.71 76.87L64.03 76.87L64.03 79.17L57.71 79.17Z" fill="#828A99" fill-opacity="1.000000" fill-rule="evenodd"/>
	</g>
</svg>
