<svg width="100.000000" height="100.000000" viewBox="0 0 100 100" fill="none" xmlns="http://www.w3.org/2000/svg" xmlns:xlink="http://www.w3.org/1999/xlink">
	<desc>
			Created with Pixso.
	</desc>
	<defs>
		<clipPath id="clip69_210">
			<rect id="AP" width="100.000000" height="100.000000" fill="white" fill-opacity="0"/>
		</clipPath>
	</defs>
	<rect id="AP" width="100.000000" height="100.000000" fill="#FFFFFF" fill-opacity="0"/>
	<g clip-path="url(#clip69_210)">
		<path id="Vector" d="M57.23 18.01C54.99 17.1 52.54 16.59 49.96 16.59C39.38 16.59 30.8 25.17 30.8 35.76C30.8 40.01 32.19 43.95 34.53 47.13L34.53 54.99C28.91 50.47 25.31 43.53 25.31 35.76C25.31 22.14 36.35 11.11 49.96 11.11C54.7 11.11 59.12 12.45 62.87 14.76L62.87 34.71C62.87 42.21 57.85 48.38 50.02 48.38C48.45 48.38 46.94 48.1 45.55 47.58L45.55 41.2C46.78 42.18 48.33 42.76 50.02 42.76C54 42.76 57.23 39.54 57.23 35.56L57.23 18.01ZM42.78 53.51C45.02 54.43 47.47 54.94 50.04 54.94C60.63 54.94 69.2 46.36 69.2 35.77C69.2 31.52 67.82 27.58 65.47 24.4L65.47 16.55C71.09 21.07 74.69 28 74.69 35.77C74.69 49.38 63.66 60.43 50.04 60.43C45.31 60.43 40.88 59.09 37.13 56.77L37.13 36.82C37.13 29.32 42.16 23.15 49.98 23.15C51.56 23.15 53.07 23.43 54.46 23.95L54.46 30.33C53.23 29.35 51.67 28.77 49.98 28.77C46 28.77 42.78 31.99 42.78 35.97L42.78 53.51ZM30.61 78.84C30.61 78.92 30.59 78.98 30.54 79.03C30.49 79.08 30.43 79.1 30.35 79.1L28.79 79.1C28.72 79.1 28.66 79.07 28.61 79.02C28.56 78.97 28.53 78.91 28.51 78.84L27.83 76.05L24.45 76.05L23.77 78.84C23.75 78.91 23.71 78.97 23.66 79.02C23.62 79.07 23.56 79.1 23.49 79.1L21.93 79.1C21.85 79.1 21.78 79.08 21.74 79.03C21.69 78.98 21.66 78.92 21.66 78.84C21.66 78.83 21.67 78.82 21.67 78.82C21.67 78.81 21.68 78.79 21.68 78.77L24.09 69.54C24.18 69.2 24.31 68.93 24.47 68.73C24.64 68.54 24.82 68.39 25.01 68.28C25.2 68.18 25.4 68.11 25.6 68.08C25.8 68.06 25.98 68.04 26.14 68.04C26.29 68.04 26.48 68.06 26.67 68.08C26.88 68.11 27.07 68.18 27.26 68.28C27.46 68.39 27.63 68.54 27.8 68.73C27.97 68.93 28.1 69.2 28.18 69.54L30.6 78.77C30.6 78.79 30.6 78.81 30.6 78.82C30.61 78.82 30.61 78.83 30.61 78.84ZM51.68 78.84C51.68 78.92 51.66 78.98 51.61 79.03C51.56 79.08 51.5 79.1 51.42 79.1L49.85 79.1C49.79 79.1 49.73 79.07 49.68 79.02C49.63 78.97 49.6 78.91 49.57 78.84L48.9 76.05L45.51 76.05L44.84 78.84C44.81 78.91 44.78 78.97 44.73 79.02C44.68 79.07 44.62 79.1 44.56 79.1L42.99 79.1C42.92 79.1 42.85 79.08 42.8 79.03C42.75 78.98 42.73 78.92 42.73 78.84C42.73 78.83 42.73 78.82 42.74 78.82C42.74 78.81 42.74 78.79 42.74 78.77L45.16 69.54C45.25 69.2 45.38 68.93 45.54 68.73C45.71 68.54 45.88 68.39 46.08 68.28C46.27 68.18 46.47 68.11 46.67 68.08C46.87 68.06 47.05 68.04 47.21 68.04C47.36 68.04 47.54 68.06 47.74 68.08C47.95 68.11 48.14 68.18 48.33 68.28C48.52 68.39 48.7 68.54 48.87 68.73C49.03 68.93 49.16 69.2 49.25 69.54L51.67 78.77C51.67 78.79 51.67 78.81 51.67 78.82C51.68 78.82 51.68 78.83 51.68 78.84ZM70.05 78.64C70.05 78.75 70.02 78.82 69.96 78.87C69.9 78.91 69.83 78.95 69.73 78.98C69.67 79 69.57 79.02 69.43 79.04C69.28 79.07 69.11 79.09 68.9 79.12C68.7 79.14 68.47 79.17 68.21 79.18C67.96 79.2 67.69 79.21 67.4 79.21C66.97 79.21 66.49 79.15 66.01 79.02C65.51 78.89 65.07 78.66 64.66 78.33C64.26 77.98 63.92 77.53 63.66 76.94C63.39 76.37 63.25 75.62 63.25 74.71L63.25 72.54C63.25 71.62 63.39 70.87 63.66 70.28C63.92 69.7 64.26 69.24 64.66 68.91C65.07 68.58 65.51 68.34 66.01 68.22C66.49 68.1 66.97 68.04 67.4 68.04C67.69 68.04 67.96 68.05 68.21 68.07C68.47 68.09 68.7 68.11 68.9 68.14C69.11 68.16 69.28 68.18 69.43 68.22C69.57 68.24 69.67 68.26 69.73 68.28C69.83 68.3 69.9 68.34 69.96 68.39C70.02 68.43 70.05 68.51 70.05 68.61L70.05 69.6C70.05 69.69 70.03 69.76 69.99 69.82C69.94 69.88 69.87 69.91 69.76 69.91L69.73 69.91C69.6 69.9 69.45 69.89 69.27 69.87C69.09 69.86 68.89 69.84 68.68 69.83C68.48 69.83 68.27 69.82 68.05 69.81C67.84 69.8 67.63 69.79 67.43 69.79C67.12 69.79 66.83 69.84 66.57 69.93C66.31 70.03 66.09 70.18 65.9 70.39C65.72 70.6 65.57 70.88 65.46 71.24C65.35 71.59 65.3 72.02 65.3 72.54L65.3 74.71C65.3 75.22 65.35 75.65 65.46 76C65.57 76.35 65.72 76.64 65.9 76.86C66.09 77.07 66.31 77.23 66.57 77.32C66.83 77.41 67.12 77.46 67.43 77.46C67.63 77.46 67.84 77.46 68.05 77.45C68.27 77.44 68.48 77.43 68.68 77.41C68.89 77.41 69.09 77.39 69.27 77.38C69.45 77.37 69.6 77.36 69.73 77.35L69.76 77.35C69.87 77.35 69.94 77.37 69.99 77.43C70.03 77.49 70.05 77.57 70.05 77.65L70.05 78.64ZM78.34 78.7C78.34 78.81 78.32 78.88 78.28 78.92C78.23 78.96 78.16 78.99 78.05 79C77.93 79.03 77.8 79.05 77.66 79.08C77.51 79.1 77.34 79.12 77.13 79.14C76.92 79.16 76.66 79.18 76.36 79.19C76.06 79.21 75.69 79.21 75.25 79.21C74.77 79.21 74.32 79.18 73.91 79.1C73.5 79.02 73.13 78.87 72.83 78.65C72.52 78.43 72.28 78.12 72.11 77.73C71.92 77.33 71.84 76.83 71.84 76.19L71.84 71.06C71.84 70.43 71.92 69.92 72.11 69.53C72.28 69.13 72.52 68.83 72.83 68.61C73.13 68.39 73.5 68.24 73.91 68.16C74.32 68.08 74.77 68.04 75.25 68.04C75.69 68.04 76.06 68.04 76.36 68.06C76.66 68.08 76.92 68.09 77.13 68.11C77.34 68.13 77.51 68.16 77.66 68.18C77.8 68.21 77.93 68.23 78.05 68.24C78.16 68.26 78.23 68.3 78.28 68.33C78.32 68.37 78.34 68.45 78.34 68.55L78.34 69.5C78.34 69.58 78.31 69.65 78.25 69.71C78.19 69.76 78.13 69.79 78.05 69.79L75.04 69.79C74.61 69.79 74.31 69.88 74.14 70.06C73.97 70.24 73.88 70.57 73.88 71.06L73.88 72.65L77.87 72.65C77.95 72.65 78.02 72.68 78.08 72.74C78.13 72.79 78.17 72.86 78.17 72.94L78.17 74C78.17 74.08 78.13 74.15 78.08 74.21C78.02 74.27 77.95 74.3 77.87 74.3L73.88 74.3L73.88 76.19C73.88 76.69 73.97 77.02 74.14 77.2C74.31 77.37 74.61 77.46 75.04 77.46L78.05 77.46C78.13 77.46 78.19 77.49 78.25 77.55C78.31 77.61 78.34 77.68 78.34 77.76L78.34 78.7ZM37.9 78.7C37.9 78.81 37.88 78.88 37.84 78.92C37.79 78.96 37.71 78.99 37.61 79C37.5 79.04 37.34 79.06 37.14 79.09C36.94 79.11 36.72 79.13 36.49 79.16C36.25 79.18 36.01 79.19 35.77 79.2C35.52 79.21 35.3 79.21 35.1 79.21C34.62 79.21 34.17 79.18 33.76 79.1C33.35 79.02 32.99 78.87 32.69 78.65C32.39 78.43 32.15 78.12 31.97 77.73C31.79 77.33 31.7 76.83 31.7 76.19L31.7 68.45C31.7 68.37 31.73 68.3 31.79 68.24C31.85 68.18 31.92 68.16 32 68.16L33.45 68.16C33.53 68.16 33.6 68.18 33.66 68.24C33.72 68.3 33.75 68.37 33.75 68.45L33.75 76.19C33.75 76.69 33.83 77.02 34 77.2C34.16 77.37 34.46 77.46 34.9 77.46L37.61 77.46C37.69 77.46 37.75 77.49 37.81 77.55C37.87 77.61 37.9 77.68 37.9 77.76L37.9 78.7ZM41.34 78.8C41.34 78.88 41.32 78.95 41.26 79C41.2 79.06 41.13 79.1 41.05 79.1L39.59 79.1C39.51 79.1 39.45 79.06 39.39 79C39.33 78.95 39.3 78.88 39.3 78.8L39.3 68.44C39.3 68.36 39.33 68.29 39.39 68.24C39.45 68.18 39.51 68.16 39.59 68.16L41.05 68.16C41.13 68.16 41.2 68.18 41.26 68.24C41.32 68.29 41.34 68.36 41.34 68.44L41.34 78.8ZM61.34 78.51C61.34 78.67 61.28 78.81 61.17 78.92C61.05 79.04 60.91 79.1 60.75 79.1L59.26 79.1C59.09 79.1 58.92 79.08 58.77 79.03C58.62 78.98 58.48 78.83 58.37 78.57L55.09 71.4C55.06 71.32 55.01 71.28 54.97 71.28C54.91 71.28 54.89 71.32 54.89 71.4L54.89 78.8C54.89 78.88 54.86 78.95 54.81 79C54.76 79.06 54.69 79.1 54.61 79.1L53.36 79.1C53.28 79.1 53.21 79.06 53.15 79C53.09 78.95 53.07 78.88 53.07 78.8L53.07 68.75C53.07 68.58 53.12 68.44 53.24 68.33C53.35 68.22 53.49 68.16 53.65 68.16L55.24 68.16C55.4 68.16 55.53 68.18 55.62 68.24C55.71 68.3 55.8 68.43 55.89 68.63L59.32 76.19C59.35 76.27 59.39 76.31 59.44 76.31C59.49 76.31 59.51 76.27 59.51 76.18L59.51 68.44C59.51 68.25 59.61 68.16 59.79 68.16L61.06 68.16C61.25 68.16 61.34 68.25 61.34 68.44L61.34 78.51ZM26.37 70C26.35 69.91 26.33 69.85 26.3 69.81C26.27 69.78 26.22 69.76 26.14 69.76C26.06 69.76 26 69.78 25.98 69.81C25.95 69.85 25.92 69.91 25.9 70L24.84 74.37L27.43 74.37L26.37 70ZM47.44 70C47.42 69.91 47.39 69.85 47.37 69.81C47.34 69.78 47.28 69.76 47.21 69.76C47.13 69.76 47.07 69.78 47.04 69.81C47.01 69.85 46.99 69.91 46.97 70L45.91 74.37L48.5 74.37L47.44 70ZM27.13 84.01C27.13 84.42 27.06 84.77 26.91 85.05C26.76 85.33 26.57 85.56 26.32 85.74C26.07 85.91 25.78 86.03 25.46 86.1C25.13 86.17 24.79 86.21 24.42 86.21C24.3 86.21 24.15 86.2 23.99 86.19C23.82 86.19 23.69 86.17 23.58 86.17L23.58 88.62C23.58 88.67 23.57 88.71 23.54 88.75C23.5 88.79 23.46 88.81 23.41 88.81L22.47 88.81C22.42 88.81 22.37 88.79 22.34 88.75C22.3 88.71 22.28 88.67 22.28 88.62L22.28 82.16C22.28 82.07 22.3 82 22.36 81.96C22.41 81.92 22.49 81.89 22.58 81.88C22.82 81.84 23.11 81.81 23.43 81.79C23.75 81.77 24.08 81.76 24.42 81.76C24.79 81.76 25.13 81.79 25.46 81.86C25.78 81.93 26.07 82.05 26.32 82.22C26.57 82.38 26.76 82.61 26.91 82.89C27.06 83.17 27.13 83.51 27.13 83.93L27.13 84.01ZM33.23 88.7C33.23 88.77 33.19 88.81 33.11 88.81L31.97 88.81C31.92 88.81 31.88 88.79 31.86 88.75C31.83 88.71 31.8 88.67 31.78 88.62L30.43 86.12L30.3 86.12C30.17 86.12 30.03 86.12 29.86 86.11C29.7 86.1 29.57 86.09 29.46 86.08L29.46 88.62C29.46 88.67 29.44 88.71 29.41 88.75C29.38 88.79 29.33 88.81 29.28 88.81L28.34 88.81C28.3 88.81 28.25 88.79 28.22 88.75C28.18 88.71 28.16 88.67 28.16 88.62L28.16 82.16C28.16 82.07 28.18 82 28.24 81.96C28.29 81.92 28.37 81.89 28.46 81.88C28.7 81.84 28.99 81.81 29.3 81.79C29.62 81.77 29.96 81.76 30.3 81.76C30.66 81.76 31.01 81.79 31.34 81.86C31.66 81.94 31.95 82.06 32.19 82.22C32.45 82.38 32.64 82.6 32.79 82.87C32.94 83.14 33.01 83.48 33.01 83.88L33.01 83.96C33.01 84.47 32.9 84.87 32.66 85.18C32.43 85.5 32.12 85.73 31.73 85.88L33.21 88.62C33.22 88.64 33.23 88.66 33.23 88.7ZM39.25 85.96C39.25 86.47 39.19 86.92 39.05 87.29C38.91 87.66 38.73 87.96 38.5 88.19C38.25 88.43 37.98 88.6 37.65 88.71C37.32 88.83 36.97 88.88 36.58 88.88C36.19 88.88 35.84 88.83 35.51 88.71C35.19 88.6 34.91 88.43 34.67 88.19C34.43 87.96 34.25 87.66 34.11 87.29C33.98 86.92 33.91 86.47 33.91 85.96L33.91 84.69C33.91 84.17 33.98 83.73 34.11 83.36C34.25 82.98 34.43 82.68 34.67 82.45C34.91 82.21 35.19 82.04 35.51 81.93C35.84 81.82 36.19 81.76 36.58 81.76C36.97 81.76 37.32 81.82 37.65 81.93C37.98 82.04 38.25 82.21 38.5 82.45C38.73 82.68 38.91 82.98 39.05 83.36C39.19 83.73 39.25 84.17 39.25 84.69L39.25 85.96ZM45.53 86.01C45.53 86.94 45.28 87.65 44.77 88.15C44.26 88.64 43.53 88.88 42.58 88.88C42.41 88.88 42.23 88.88 42.05 88.87C41.86 88.87 41.68 88.86 41.51 88.85C41.34 88.83 41.18 88.82 41.04 88.81C40.9 88.79 40.79 88.78 40.73 88.77C40.64 88.76 40.58 88.73 40.54 88.69C40.5 88.64 40.48 88.57 40.48 88.48L40.48 82.16C40.48 82.07 40.5 82 40.54 81.96C40.58 81.91 40.64 81.88 40.73 81.87C40.79 81.86 40.9 81.84 41.04 81.83C41.18 81.82 41.34 81.81 41.51 81.79C41.68 81.78 41.86 81.77 42.05 81.77C42.23 81.76 42.41 81.76 42.58 81.76C43.53 81.76 44.26 82 44.77 82.5C45.28 82.98 45.53 83.7 45.53 84.63L45.53 86.01ZM57.37 88.51C57.37 88.58 57.35 88.63 57.32 88.66C57.28 88.69 57.23 88.71 57.16 88.73C57.12 88.75 57.06 88.76 56.97 88.78C56.88 88.79 56.77 88.8 56.64 88.82C56.51 88.84 56.36 88.85 56.2 88.86C56.04 88.88 55.86 88.88 55.68 88.88C55.4 88.88 55.1 88.84 54.79 88.76C54.47 88.68 54.19 88.53 53.93 88.32C53.68 88.1 53.46 87.81 53.29 87.44Q53.03 86.88 53.03 86.01L53.03 84.63C53.03 84.04 53.12 83.56 53.29 83.19C53.46 82.82 53.68 82.52 53.93 82.31C54.19 82.1 54.47 81.96 54.79 81.87C55.1 81.79 55.4 81.76 55.68 81.76C55.86 81.76 56.04 81.76 56.2 81.78C56.36 81.79 56.51 81.81 56.64 81.82C56.77 81.83 56.88 81.85 56.97 81.87C57.06 81.89 57.12 81.9 57.16 81.91C57.23 81.93 57.28 81.95 57.32 81.98C57.35 82 57.37 82.06 57.37 82.12L57.37 82.75C57.37 82.81 57.35 82.86 57.33 82.89C57.3 82.93 57.25 82.95 57.18 82.95L57.16 82.95C57.08 82.95 56.98 82.94 56.87 82.92C56.75 82.92 56.63 82.91 56.5 82.9C56.36 82.9 56.23 82.89 56.1 82.88C55.96 82.88 55.82 82.88 55.7 82.88C55.5 82.88 55.31 82.9 55.15 82.96C54.98 83.02 54.84 83.12 54.73 83.26C54.6 83.39 54.51 83.57 54.44 83.79C54.37 84.02 54.34 84.3 54.34 84.63L54.34 86.01C54.34 86.34 54.37 86.61 54.44 86.84C54.51 87.06 54.6 87.25 54.73 87.38C54.84 87.52 54.98 87.62 55.15 87.67C55.31 87.74 55.5 87.77 55.7 87.77C55.82 87.77 55.96 87.76 56.1 87.75L56.5 87.74C56.63 87.73 56.75 87.72 56.87 87.71C56.98 87.71 57.08 87.7 57.16 87.69L57.18 87.69C57.25 87.69 57.3 87.71 57.33 87.75C57.35 87.79 57.37 87.83 57.37 87.89L57.37 88.51ZM71.81 85.96C71.81 86.47 71.74 86.92 71.61 87.29C71.47 87.66 71.29 87.96 71.05 88.19C70.81 88.43 70.53 88.6 70.2 88.71C69.88 88.83 69.52 88.88 69.14 88.88C68.75 88.88 68.39 88.83 68.07 88.71C67.75 88.6 67.46 88.43 67.23 88.19C66.99 87.96 66.8 87.66 66.67 87.29C66.54 86.92 66.47 86.47 66.47 85.96L66.47 84.69C66.47 84.17 66.54 83.73 66.67 83.36C66.8 82.98 66.99 82.68 67.23 82.45C67.46 82.21 67.75 82.04 68.07 81.93C68.39 81.82 68.75 81.76 69.14 81.76C69.52 81.76 69.88 81.82 70.2 81.93C70.53 82.04 70.81 82.21 71.05 82.45C71.29 82.68 71.47 82.98 71.61 83.36C71.74 83.73 71.81 84.17 71.81 84.69L71.81 85.96ZM51.86 86.23Q51.86 86.98 51.67 87.48C51.54 87.82 51.36 88.09 51.13 88.3C50.9 88.51 50.63 88.65 50.31 88.75C50 88.84 49.65 88.88 49.28 88.88C48.9 88.88 48.56 88.84 48.24 88.75C47.92 88.65 47.65 88.51 47.42 88.3C47.2 88.09 47.02 87.82 46.89 87.48Q46.7 86.98 46.7 86.23L46.7 82.01C46.7 81.96 46.71 81.92 46.75 81.89C46.79 81.85 46.83 81.83 46.89 81.83L47.81 81.83C47.87 81.83 47.91 81.85 47.95 81.89C47.98 81.92 48 81.96 48 82.01L48 86.23C48 86.5 48.02 86.74 48.06 86.94C48.1 87.13 48.16 87.29 48.26 87.43C48.36 87.56 48.49 87.66 48.65 87.72C48.81 87.78 49.02 87.81 49.28 87.81C49.53 87.81 49.73 87.78 49.9 87.72C50.07 87.66 50.2 87.56 50.3 87.43C50.39 87.29 50.46 87.13 50.5 86.94C50.54 86.74 50.55 86.5 50.55 86.23L50.55 82.01C50.55 81.96 50.58 81.92 50.61 81.89C50.65 81.85 50.69 81.83 50.74 81.83L51.67 81.83C51.72 81.83 51.76 81.85 51.8 81.89C51.84 81.92 51.86 81.96 51.86 82.01L51.86 86.23ZM63 82.75C63 82.8 62.98 82.84 62.94 82.88C62.91 82.91 62.86 82.92 62.82 82.92L61.17 82.92L61.17 88.62C61.17 88.67 61.16 88.71 61.12 88.75C61.08 88.79 61.03 88.81 60.98 88.81L60.05 88.81C60 88.81 59.96 88.79 59.92 88.75C59.89 88.71 59.87 88.67 59.87 88.62L59.87 82.92L58.23 82.92C58.17 82.92 58.13 82.91 58.09 82.88C58.06 82.84 58.04 82.8 58.04 82.75L58.04 82.01C58.04 81.96 58.06 81.92 58.09 81.89C58.13 81.85 58.17 81.83 58.23 81.83L62.82 81.83C62.86 81.83 62.91 81.85 62.94 81.89C62.98 81.92 63 81.96 63 82.01L63 82.75ZM65.25 88.62C65.25 88.67 65.22 88.71 65.19 88.75C65.15 88.79 65.11 88.81 65.06 88.81L64.13 88.81C64.08 88.81 64.04 88.79 64 88.75C63.96 88.71 63.94 88.67 63.94 88.62L63.94 82.01C63.94 81.96 63.96 81.92 64 81.89C64.04 81.85 64.08 81.83 64.13 81.83L65.06 81.83C65.11 81.83 65.15 81.85 65.19 81.89C65.22 81.92 65.25 81.96 65.25 82.01L65.25 88.62ZM78.31 88.43C78.31 88.54 78.28 88.63 78.2 88.7C78.13 88.77 78.04 88.81 77.94 88.81L76.99 88.81C76.88 88.81 76.77 88.79 76.68 88.77C76.58 88.74 76.49 88.64 76.42 88.47L74.33 83.9C74.31 83.85 74.28 83.82 74.25 83.82C74.21 83.82 74.2 83.85 74.2 83.9L74.2 88.62C74.2 88.67 74.18 88.71 74.15 88.75C74.11 88.79 74.08 88.81 74.02 88.81L73.22 88.81C73.18 88.81 73.13 88.79 73.1 88.75C73.06 88.71 73.04 88.67 73.04 88.62L73.04 82.21C73.04 82.1 73.07 82.01 73.14 81.94C73.22 81.87 73.3 81.83 73.41 81.83L74.43 81.83C74.53 81.83 74.61 81.85 74.66 81.89C74.72 81.93 74.78 82.01 74.84 82.13L77.03 86.96C77.05 87.01 77.07 87.03 77.1 87.03C77.13 87.03 77.15 87 77.15 86.95L77.15 82.01C77.15 81.89 77.21 81.83 77.33 81.83L78.13 81.83C78.25 81.83 78.31 81.89 78.31 82.01L78.31 88.43ZM25.83 83.92C25.83 83.52 25.71 83.25 25.47 83.08C25.24 82.91 24.89 82.83 24.42 82.83C24.37 82.83 24.31 82.83 24.23 82.83C24.15 82.83 24.07 82.84 23.99 82.84C23.91 82.84 23.83 82.85 23.76 82.85C23.69 82.86 23.63 82.86 23.58 82.87L23.58 85.11C23.62 85.11 23.68 85.11 23.76 85.11C23.84 85.11 23.92 85.12 24 85.12C24.09 85.12 24.17 85.13 24.25 85.13C24.32 85.14 24.38 85.14 24.42 85.14C24.93 85.14 25.29 85.04 25.51 84.85C25.72 84.66 25.83 84.38 25.83 84.01L25.83 83.92ZM44.23 84.63C44.23 84.29 44.19 83.99 44.1 83.77C44.02 83.54 43.9 83.35 43.75 83.22C43.6 83.08 43.43 82.99 43.23 82.94C43.03 82.88 42.81 82.86 42.58 82.86C42.4 82.86 42.25 82.86 42.13 82.87C42 82.87 41.89 82.88 41.79 82.88L41.79 87.77C41.89 87.77 42 87.78 42.13 87.79C42.25 87.79 42.4 87.79 42.58 87.79C42.81 87.79 43.03 87.77 43.23 87.71C43.43 87.66 43.6 87.57 43.75 87.43C43.9 87.29 44.02 87.12 44.1 86.89C44.19 86.66 44.23 86.37 44.23 86.01L44.23 84.63ZM31.71 83.88C31.71 83.52 31.59 83.27 31.35 83.11C31.12 82.95 30.76 82.88 30.3 82.88C30.24 82.88 30.18 82.88 30.11 82.88C30.03 82.88 29.94 82.89 29.86 82.89C29.78 82.89 29.71 82.89 29.63 82.9C29.56 82.9 29.51 82.91 29.46 82.91L29.46 85.02C29.5 85.02 29.56 85.02 29.63 85.03C29.71 85.03 29.8 85.03 29.88 85.04C29.97 85.04 30.05 85.04 30.12 85.05L30.3 85.05C30.79 85.05 31.14 84.98 31.37 84.82C31.59 84.66 31.71 84.38 31.71 83.96L31.71 83.88ZM37.95 84.69C37.95 84.06 37.84 83.6 37.61 83.32C37.39 83.04 37.04 82.89 36.58 82.89C36.12 82.89 35.77 83.04 35.55 83.32C35.33 83.6 35.21 84.06 35.21 84.69L35.21 85.96C35.21 86.58 35.33 87.04 35.55 87.32C35.77 87.6 36.12 87.75 36.58 87.75C37.04 87.75 37.39 87.6 37.61 87.32C37.84 87.04 37.95 86.58 37.95 85.96L37.95 84.69ZM70.5 84.69C70.5 84.06 70.39 83.6 70.17 83.32C69.95 83.04 69.6 82.89 69.14 82.89C68.67 82.89 68.33 83.04 68.11 83.32C67.88 83.6 67.77 84.06 67.77 84.69L67.77 85.96C67.77 86.58 67.88 87.04 68.11 87.32C68.33 87.6 68.67 87.75 69.14 87.75C69.6 87.75 69.95 87.6 70.17 87.32C70.39 87.04 70.5 86.58 70.5 85.96L70.5 84.69Z" fill="#828A99" fill-opacity="1.000000" fill-rule="evenodd"/>
	</g>
</svg>
