<svg width="0" height="0" class="hidden">
  <symbol fill="none" xmlns="http://www.w3.org/2000/svg" viewBox="0 0 36 36" id="cetificate">
    <path d="M27.2216 9.35938L22.6825 4.82031C22.1903 4.32812 21.4794 4 20.8232 4H9.66691C8.19035 4.05469 7.04191 5.20312 7.04191 6.67969V13.0781C6.71379 13.0781 6.38566 13.0234 5.67473 12.8047C5.62004 12.8047 5.51066 12.8047 5.40129 12.8047C5.12785 12.8047 4.85441 12.9141 4.69035 13.0781C3.70598 14.1172 3.76066 14.0625 2.39348 14.4453C2.01066 14.5547 1.73723 14.8281 1.62785 15.2109C1.29973 16.5781 1.29973 16.5234 0.31535 17.5078C0.0419129 17.7812 -0.0674621 18.2188 0.0419129 18.6016C0.424725 19.9141 0.424725 19.9141 0.0419129 21.2266C-0.0674621 21.6094 0.0419129 22.0469 0.31535 22.3203C1.29973 23.3047 1.29973 23.3047 1.62785 24.6172C1.73723 25 2.01066 25.2734 2.39348 25.3828C2.50285 25.4375 2.55754 25.4375 2.66691 25.4375V31.125C2.66691 31.4531 2.77629 31.7266 3.04973 31.8906C3.32316 32.0547 3.65129 32.0547 3.92473 31.9453L7.04191 30.3594L10.1044 31.9453C10.2685 32 10.3779 32 10.5419 32H25.4169C26.8388 32 28.0419 30.8516 28.0419 29.4297V11.2188C28.0419 10.5625 27.7138 9.85156 27.2216 9.35938ZM21.0419 5.80469C21.1513 5.85938 21.3153 5.91406 21.4247 6.02344L26.0185 10.6172C26.1278 10.7266 26.1825 10.8906 26.2372 11.0547H21.0419V5.80469ZM1.8466 21.3359C2.12004 20.1328 2.12004 19.6953 1.8466 18.4922C2.66691 17.6172 2.88566 17.2344 3.21379 16.0312C4.41691 15.7031 4.74504 15.4844 5.62004 14.6094C6.16691 14.7734 6.54973 14.8281 7.04191 14.8281C7.47941 14.8281 7.86223 14.7734 8.4091 14.6094C9.22941 15.4844 9.61223 15.7031 10.8154 16.0312C11.1435 17.2344 11.3075 17.5625 12.1825 18.4922C11.8544 19.6953 11.8544 20.1328 12.1825 21.3359C11.3622 22.2109 11.1435 22.5938 10.8154 23.7969C9.99504 24.0156 9.50285 24.1797 8.73723 24.8359C8.19035 24.6172 7.64348 24.5078 7.04191 24.5078C6.38566 24.5078 5.83879 24.6172 5.29191 24.8906C4.52629 24.2344 4.0341 24.0156 3.21379 23.7969C2.88566 22.5938 2.7216 22.2656 1.8466 21.3359ZM7.42473 28.6094C7.15129 28.5 6.87785 28.5 6.60441 28.6094L4.41691 29.7578V26.4219C4.41691 26.4766 4.41691 26.4766 4.41691 26.4766C4.63566 26.6953 4.9091 26.75 5.12785 26.75C5.3466 26.75 5.51066 26.6953 5.72941 26.6406C6.11223 26.3672 6.54973 26.2578 7.04191 26.2578C7.47941 26.2578 7.91691 26.3672 8.29973 26.5859C8.51848 26.75 8.68254 26.75 8.90129 26.75C9.17473 26.75 9.39348 26.6953 9.61223 26.4766C9.61223 26.4766 9.61223 26.4766 9.66691 26.4219V29.7578L7.42473 28.6094ZM26.2919 29.4297C26.2919 29.8672 25.8544 30.3047 25.4169 30.3047H11.4169V25.4375C11.4716 25.4375 11.5263 25.4375 11.6357 25.3828C12.0185 25.2734 12.2919 25 12.4013 24.6172C12.7294 23.25 12.7294 23.3047 13.7138 22.3203C13.9872 22.0469 14.0966 21.6094 13.9872 21.2266C13.6044 19.9141 13.6044 19.9141 13.9872 18.6016C14.0966 18.2188 13.9872 17.7812 13.7138 17.5078C12.7294 16.5234 12.7294 16.5234 12.4013 15.2109C12.2919 14.8281 12.0185 14.5547 11.6357 14.4453C10.3232 14.0625 10.3232 14.1172 9.33879 13.0781C9.17473 12.9141 8.95598 12.8594 8.79191 12.8047V6.67969C8.79191 6.1875 9.17473 5.75 9.66691 5.75H19.2919V11.4922C19.2919 12.2031 19.8388 12.75 20.6044 12.75H26.2919V29.4297Z" fill="#5C8EE6"></path>
  </symbol>
  <symbol fill="none" xmlns="http://www.w3.org/2000/svg" viewBox="0 0 36 36" id="control">
    <path d="M17.1172 23.25C15.5312 23.25 14.8203 24.125 12.25 24.125C9.625 24.125 8.91406 23.25 7.32812 23.25C3.28125 23.25 0 26.5859 0 30.6328C0 31.3984 0.601562 32 1.36719 32H23.0781C23.8438 32 24.5 31.3984 24.5 30.6328C24.5 26.5859 21.1641 23.25 17.1172 23.25ZM1.75 30.25C1.91406 27.3516 4.375 25.0547 7.32812 25C8.42188 25 9.46094 25.875 12.25 25.875C15.0391 25.875 16.0234 25 17.1172 25C20.0703 25.0547 22.5312 27.3516 22.6953 30.25H1.75ZM4.8125 12.75H5.46875C5.30469 13.3516 5.25 13.8984 5.25 14.5C5.25 18.3828 8.36719 21.5 12.25 21.5C16.0781 21.5 19.25 18.3828 19.25 14.5C19.1953 13.8984 19.1406 13.3516 18.9766 12.75H19.6875C19.9062 12.75 20.125 12.5859 20.125 12.3125V11.4375C20.125 11.2188 19.9062 11 19.6875 11H19.25C19.25 8.21094 17.3359 5.85938 14.7109 5.14844C14.4922 4.49219 13.8359 4.05469 13.125 4H11.375C10.6094 4.05469 9.95312 4.49219 9.73438 5.14844C7.16406 5.85938 5.25 8.21094 5.25 11H4.8125C4.53906 11 4.375 11.2188 4.375 11.4375V12.3125C4.375 12.5859 4.53906 12.75 4.8125 12.75ZM14.875 7.00781C16.4062 7.71875 17.4453 9.25 17.5 11H14.875V7.00781ZM11.375 5.75H13.125V11H11.375V5.75ZM7 11C7 9.25 8.03906 7.71875 9.625 7.00781V11H7ZM7.32812 12.75H17.1719C17.3359 13.2969 17.4453 13.8984 17.5 14.5C17.5 17.3984 15.0938 19.75 12.25 19.75C9.35156 19.75 7 17.3984 7 14.5C7 13.8984 7.10938 13.2969 7.32812 12.75Z" fill="#5C8EE6"></path>
  </symbol>
  <symbol fill="none" xmlns="http://www.w3.org/2000/svg" viewBox="0 0 36 36" id="delivery">
    <path d="M1.75 21.5H20.125C21.0547 21.5 21.875 20.7344 21.875 19.75V7.5C21.875 6.57031 21.0547 5.75 20.125 5.75H1.75C0.765625 5.75 0 6.57031 0 7.5V19.75C0 20.7344 0.765625 21.5 1.75 21.5ZM1.75 7.5H20.125V19.75H1.75V7.5ZM33.9609 15.2656L30.7344 12.0391C30.0781 11.3828 29.2031 11.0547 28.2734 11.0547H24.5C24.0078 11.0547 23.625 11.4375 23.625 11.9297V23.3047H12.4688C11.8125 22.7578 10.9922 22.4297 10.0625 22.4297C8.80469 22.4297 7.71094 22.9766 7 23.9062C6.23438 22.9766 5.14062 22.375 3.9375 22.375C1.75 22.375 0 24.1797 0 26.3125C0 28.5 1.75 30.25 3.9375 30.25C5.14062 30.25 6.23438 29.7031 7 28.7734C7.71094 29.7031 8.80469 30.25 10.0625 30.25C12.1953 30.25 14 28.5 14 26.3125C14 25.875 13.8906 25.4375 13.7266 25H24.5547C24.3906 25.7656 24.4453 26.5312 24.7188 27.3516C25.1562 28.7188 26.3594 29.8125 27.7812 30.1406C30.625 30.8516 33.25 28.6641 33.25 25.875C33.25 25.6016 33.1953 25.3281 33.1406 25H34.125C34.5625 25 35 24.6172 35 24.125V17.7266C35 16.7969 34.6172 15.9219 33.9609 15.2656ZM3.9375 28.5C2.67969 28.5 1.75 27.5703 1.75 26.3125C1.75 25.1094 2.67969 24.125 3.9375 24.125C5.14062 24.125 6.125 25.1094 6.125 26.3125C6.125 27.5703 5.14062 28.5 3.9375 28.5ZM10.0625 28.5C8.80469 28.5 7.875 27.5703 7.875 26.3125C7.875 25.1094 8.80469 24.125 10.0625 24.125C11.2656 24.125 12.25 25.1094 12.25 26.3125C12.25 27.5703 11.2656 28.5 10.0625 28.5ZM25.375 12.75H28.2734C28.7656 12.75 29.2031 12.9688 29.5312 13.2969L32.4844 16.25H25.375V12.75ZM28.875 28.5C27.3984 28.5 26.25 27.3516 26.25 25.875C26.25 24.4531 27.3984 23.25 28.875 23.25C30.2969 23.25 31.5 24.4531 31.5 25.875C31.5 27.3516 30.2969 28.5 28.875 28.5ZM33.25 23.25H32.3203C31.5547 22.2109 30.2969 21.5 28.875 21.5C27.3984 21.5 26.1953 22.2109 25.375 23.25V18H33.25V23.25ZM5.6875 18H6.5625C6.78125 18 7 17.8359 7 17.5625V9.6875C7 9.46875 6.78125 9.25 6.5625 9.25H5.6875C5.41406 9.25 5.25 9.46875 5.25 9.6875V17.5625C5.25 17.8359 5.41406 18 5.6875 18ZM10.9375 18H11.8125C12.0312 18 12.25 17.8359 12.25 17.5625V9.6875C12.25 9.46875 12.0312 9.25 11.8125 9.25H10.9375C10.6641 9.25 10.5 9.46875 10.5 9.6875V17.5625C10.5 17.8359 10.6641 18 10.9375 18ZM16.1875 18H17.0625C17.2812 18 17.5 17.8359 17.5 17.5625V9.6875C17.5 9.46875 17.2812 9.25 17.0625 9.25H16.1875C15.9141 9.25 15.75 9.46875 15.75 9.6875V17.5625C15.75 17.8359 15.9141 18 16.1875 18Z" fill="#5C8EE6"></path>
  </symbol>
  <symbol fill="none" xmlns="http://www.w3.org/2000/svg" xmlns:xlink="http://www.w3.org/1999/xlink" viewBox="0 0 140 44" id="logo-black">
    <desc>Created with Pixso.</desc>
    <defs>
      <clipPath id="clip191_1668">
        <rect id="logo" width="140.000000" height="44.000000" fill="white" fill-opacity="0"></rect>
      </clipPath>
    </defs>
    <rect id="logo" width="140.000000" height="44.000000" fill="#FFFFFF" fill-opacity="0"></rect>
    <g clip-path="url(#clip191_1668)">
      <path id="Vector" d="M21.99 4.89C24.28 4.89 26.47 5.34 28.47 6.16L28.47 12.35L28.47 21.81C28.47 25.36 25.59 28.24 22.04 28.24C20.53 28.24 19.15 27.72 18.05 26.85L18.05 32.54C19.29 33 20.64 33.25 22.04 33.25C29.02 33.25 33.51 27.74 33.51 21.05L33.51 3.25C30.16 1.19 26.21 0 21.99 0C9.84 0 0 9.84 0 21.99C0 28.92 3.21 35.11 8.22 39.14L8.22 32.13C6.13 29.3 4.89 25.79 4.89 21.99C4.89 12.54 12.54 4.89 21.99 4.89Z" fill="#292D33" fill-opacity="1.000000" fill-rule="evenodd"></path>
      <path id="Vector" d="M22.06 39.1C19.76 39.1 17.58 38.65 15.58 37.83L15.58 31.64L15.58 22.18C15.58 18.63 18.45 15.75 22 15.75C23.51 15.75 24.9 16.27 26 17.14L26 11.45C24.75 10.99 23.41 10.74 22 10.74C15.02 10.74 10.54 16.25 10.54 22.94L10.54 40.74C13.89 42.8 17.83 44 22.06 44C34.2 44 44.05 34.15 44.05 22C44.05 15.07 40.84 8.88 35.82 4.85L35.82 11.86C37.92 14.69 39.16 18.2 39.16 22C39.16 31.45 31.5 39.1 22.06 39.1Z" fill="#5C8EE6" fill-opacity="1.000000" fill-rule="evenodd"></path>
      <path id="Vector" d="M71.19 22.8C71.26 22.74 71.3 22.65 71.3 22.55L71.3 22.51C71.28 22.49 71.28 22.46 71.28 22.44L67.8 9.16C67.67 8.67 67.48 8.27 67.25 7.99C67.02 7.72 66.76 7.48 66.49 7.33C66.21 7.19 65.92 7.1 65.64 7.06C65.34 7.02 65.09 7 64.86 7C64.62 7 64.37 7.02 64.09 7.06C63.8 7.1 63.52 7.19 63.25 7.33C62.97 7.48 62.7 7.72 62.46 7.99C62.23 8.27 62.04 8.67 61.91 9.16L58.44 22.44L58.44 22.51C58.42 22.53 58.42 22.53 58.42 22.55C58.42 22.65 58.46 22.74 58.52 22.8C58.58 22.87 58.69 22.91 58.8 22.91L61.04 22.91C61.15 22.91 61.23 22.87 61.3 22.8C61.36 22.74 61.42 22.65 61.45 22.55L62.42 18.52L67.29 18.52L68.27 22.55C68.29 22.65 68.35 22.74 68.42 22.8C68.48 22.87 68.57 22.91 68.67 22.91L70.92 22.91C71.02 22.91 71.13 22.87 71.19 22.8ZM101.52 22.8C101.58 22.74 101.62 22.65 101.62 22.55L101.62 22.51C101.6 22.49 101.6 22.46 101.6 22.44L98.13 9.16C98 8.67 97.81 8.27 97.57 7.99C97.34 7.72 97.09 7.48 96.81 7.33C96.54 7.19 96.24 7.1 95.96 7.06C95.67 7.02 95.41 7 95.18 7C94.95 7 94.69 7.02 94.42 7.06C94.12 7.1 93.84 7.19 93.57 7.33C93.29 7.48 93.02 7.72 92.79 7.99C92.55 8.27 92.36 8.67 92.23 9.16L88.76 22.44L88.76 22.51C88.74 22.53 88.74 22.53 88.74 22.55C88.74 22.65 88.78 22.74 88.84 22.8C88.91 22.87 89.01 22.91 89.12 22.91L91.37 22.91C91.47 22.91 91.56 22.87 91.62 22.8C91.68 22.74 91.75 22.65 91.77 22.55L92.74 18.52L97.62 18.52L98.59 22.55C98.61 22.65 98.68 22.74 98.74 22.8C98.8 22.87 98.89 22.91 98.99 22.91L101.24 22.91C101.35 22.91 101.45 22.87 101.52 22.8ZM127.94 22.57C128.02 22.51 128.07 22.4 128.07 22.25L128.07 20.83C128.07 20.7 128.05 20.6 127.98 20.51C127.92 20.43 127.79 20.39 127.64 20.39L127.6 20.39C127.41 20.41 127.2 20.41 126.94 20.43C126.67 20.45 126.39 20.47 126.1 20.49C125.8 20.51 125.5 20.51 125.19 20.54C124.87 20.56 124.57 20.56 124.3 20.56C123.85 20.56 123.43 20.49 123.07 20.35C122.68 20.22 122.37 20.01 122.09 19.69C121.82 19.37 121.6 18.97 121.46 18.46C121.31 17.95 121.22 17.34 121.22 16.59L121.22 13.48C121.22 12.74 121.31 12.1 121.46 11.59C121.6 11.08 121.82 10.68 122.09 10.36C122.37 10.07 122.68 9.86 123.07 9.71C123.43 9.58 123.85 9.52 124.3 9.52C124.57 9.52 124.87 9.52 125.19 9.54C125.5 9.56 125.8 9.56 126.1 9.58C126.39 9.6 126.67 9.6 126.94 9.62C127.2 9.64 127.41 9.67 127.6 9.69L127.64 9.69C127.79 9.69 127.92 9.64 127.98 9.56C128.05 9.47 128.07 9.37 128.07 9.24L128.07 7.82C128.07 7.67 128.02 7.55 127.94 7.48C127.86 7.42 127.75 7.38 127.6 7.33C127.52 7.31 127.37 7.29 127.18 7.25C126.97 7.21 126.71 7.16 126.41 7.12C126.12 7.1 125.78 7.06 125.42 7.04C125.06 7.02 124.66 7 124.25 7C123.62 7 122.94 7.08 122.24 7.25C121.54 7.44 120.88 7.76 120.31 8.25C119.72 8.73 119.25 9.39 118.85 10.22C118.47 11.06 118.28 12.14 118.28 13.48L118.28 16.59C118.28 17.91 118.47 18.99 118.85 19.82C119.25 20.64 119.72 21.3 120.31 21.79C120.88 22.27 121.54 22.61 122.24 22.8C122.94 22.99 123.62 23.08 124.25 23.08C124.66 23.08 125.06 23.06 125.42 23.04C125.78 23.01 126.12 22.97 126.41 22.95C126.71 22.91 126.97 22.87 127.18 22.82C127.37 22.8 127.52 22.76 127.6 22.74C127.75 22.7 127.86 22.63 127.94 22.57ZM139.91 22.65C139.98 22.59 140 22.49 140 22.34L140 20.98C140 20.87 139.95 20.77 139.87 20.68C139.78 20.6 139.68 20.56 139.57 20.56L135.25 20.56C134.64 20.56 134.19 20.43 133.96 20.18C133.7 19.92 133.58 19.43 133.58 18.73L133.58 16L139.32 16C139.42 16 139.53 15.96 139.62 15.87C139.7 15.79 139.74 15.68 139.74 15.58L139.74 14.05C139.74 13.95 139.7 13.84 139.62 13.75C139.53 13.67 139.42 13.63 139.32 13.63L133.58 13.63L133.58 11.34C133.58 10.64 133.7 10.15 133.96 9.9C134.19 9.64 134.64 9.52 135.25 9.52L139.57 9.52C139.68 9.52 139.78 9.47 139.87 9.39C139.95 9.3 140 9.2 140 9.09L140 7.74C140 7.59 139.98 7.48 139.91 7.42C139.85 7.36 139.72 7.31 139.57 7.29C139.4 7.27 139.21 7.23 139.02 7.19C138.81 7.16 138.56 7.12 138.26 7.1C137.94 7.08 137.58 7.04 137.16 7.02C136.71 7 136.18 7 135.55 7L135.55 7C134.85 7 134.21 7.06 133.62 7.16C133.03 7.27 132.5 7.48 132.07 7.8C131.63 8.12 131.27 8.56 131.01 9.14C130.76 9.71 130.63 10.43 130.63 11.34L130.63 18.73C130.63 19.65 130.76 20.37 131.01 20.94C131.27 21.51 131.63 21.93 132.07 22.25C132.5 22.57 133.03 22.8 133.62 22.91C134.21 23.01 134.85 23.08 135.55 23.08L135.55 23.08C136.18 23.08 136.71 23.08 137.16 23.06C137.58 23.04 137.94 22.99 138.26 22.97C138.56 22.95 138.81 22.91 139.02 22.87C139.21 22.85 139.4 22.8 139.57 22.78C139.72 22.76 139.85 22.72 139.91 22.65ZM81.7 22.65C81.77 22.59 81.79 22.49 81.79 22.34L81.79 20.98C81.79 20.87 81.75 20.77 81.66 20.68C81.58 20.6 81.47 20.56 81.36 20.56L77.46 20.56C76.85 20.56 76.41 20.43 76.17 20.18C75.94 19.92 75.81 19.43 75.81 18.73L75.81 7.59C75.81 7.48 75.77 7.38 75.68 7.29C75.6 7.21 75.49 7.16 75.39 7.16L73.29 7.16C73.18 7.16 73.08 7.21 72.99 7.29C72.91 7.38 72.87 7.48 72.87 7.59L72.87 18.73C72.87 19.65 72.99 20.37 73.25 20.94C73.5 21.51 73.84 21.93 74.29 22.25C74.73 22.57 75.24 22.8 75.83 22.91C76.43 23.01 77.06 23.08 77.76 23.08L77.76 23.08C78.04 23.08 78.35 23.08 78.72 23.06C79.08 23.04 79.41 23.01 79.75 22.99C80.09 22.97 80.41 22.93 80.71 22.89C80.98 22.87 81.22 22.82 81.36 22.78C81.51 22.76 81.64 22.72 81.7 22.65ZM86.62 22.78C86.7 22.7 86.75 22.59 86.75 22.49L86.75 7.57C86.75 7.46 86.7 7.36 86.62 7.27C86.53 7.21 86.43 7.16 86.32 7.16L84.22 7.16C84.12 7.16 84.01 7.21 83.93 7.27C83.84 7.36 83.8 7.46 83.8 7.57L83.8 22.49C83.8 22.59 83.84 22.7 83.93 22.78C84.01 22.87 84.12 22.91 84.22 22.91L86.32 22.91C86.43 22.91 86.53 22.87 86.62 22.78ZM115.29 22.65C115.44 22.51 115.52 22.29 115.52 22.06L115.52 7.57C115.52 7.29 115.4 7.16 115.12 7.16L113.3 7.16C113.02 7.16 112.89 7.29 112.89 7.57L112.89 18.71C112.89 18.84 112.85 18.9 112.79 18.9C112.73 18.9 112.66 18.84 112.62 18.73L107.68 7.84C107.56 7.57 107.43 7.38 107.3 7.29C107.15 7.21 106.98 7.16 106.75 7.16L104.46 7.16C104.23 7.16 104.02 7.25 103.87 7.4C103.7 7.57 103.61 7.78 103.61 8.01L103.61 22.49C103.61 22.59 103.66 22.7 103.74 22.78C103.83 22.87 103.93 22.91 104.04 22.91L105.84 22.91C105.94 22.91 106.05 22.87 106.14 22.78C106.2 22.7 106.24 22.59 106.24 22.49L106.24 11.83C106.24 11.72 106.28 11.66 106.35 11.66C106.41 11.66 106.47 11.72 106.54 11.83L111.24 22.15C111.41 22.53 111.6 22.74 111.84 22.8C112.05 22.87 112.28 22.91 112.53 22.91L114.67 22.91C114.91 22.91 115.12 22.82 115.29 22.65ZM95.41 9.54C95.46 9.6 95.5 9.69 95.52 9.81L97.04 16.11L93.31 16.11L94.84 9.81C94.86 9.69 94.9 9.6 94.95 9.54C94.99 9.5 95.07 9.47 95.18 9.47C95.29 9.47 95.37 9.5 95.41 9.54ZM65.09 9.54C65.13 9.6 65.17 9.69 65.2 9.81L66.72 16.11L62.99 16.11L64.52 9.81C64.54 9.69 64.58 9.6 64.62 9.54C64.67 9.5 64.75 9.47 64.86 9.47C64.96 9.47 65.05 9.5 65.09 9.54Z" fill="#292D33" fill-opacity="1.000000" fill-rule="evenodd"></path>
      <path id="Vector" d="M65.56 31.48C65.76 31.08 65.87 30.58 65.87 29.98L65.87 29.86C65.87 29.27 65.76 28.77 65.56 28.36C65.34 27.97 65.06 27.64 64.7 27.4C64.34 27.16 63.93 26.98 63.47 26.89C62.99 26.79 62.49 26.74 61.98 26.74C61.48 26.74 60.99 26.75 60.53 26.78C60.07 26.82 59.67 26.86 59.32 26.91C59.18 26.93 59.07 26.97 59.01 27.02C58.93 27.09 58.89 27.18 58.89 27.32L58.89 36.62C58.89 36.68 58.91 36.75 58.97 36.81C59.02 36.86 59.09 36.89 59.16 36.89L60.51 36.89C60.57 36.89 60.64 36.86 60.7 36.81C60.74 36.75 60.76 36.68 60.76 36.62L60.76 33.09C60.91 33.1 61.11 33.1 61.34 33.12C61.59 33.13 61.79 33.14 61.97 33.14C62.49 33.14 62.99 33.09 63.47 32.98C63.93 32.89 64.34 32.71 64.7 32.45C65.06 32.21 65.34 31.89 65.56 31.48ZM74.48 36.89C74.59 36.89 74.64 36.83 74.64 36.72C74.64 36.68 74.63 36.64 74.61 36.62L72.49 32.67C73.06 32.45 73.51 32.12 73.83 31.67C74.17 31.23 74.33 30.63 74.33 29.91L74.33 29.79C74.33 29.21 74.22 28.73 74.02 28.33C73.8 27.94 73.52 27.63 73.15 27.4C72.8 27.17 72.38 27 71.92 26.89C71.45 26.79 70.95 26.74 70.44 26.74C69.94 26.74 69.45 26.75 68.99 26.78C68.53 26.82 68.13 26.86 67.78 26.91C67.64 26.93 67.53 26.97 67.47 27.02C67.38 27.09 67.34 27.18 67.34 27.32L67.34 36.62C67.34 36.68 67.37 36.75 67.43 36.81C67.48 36.86 67.55 36.89 67.61 36.89L68.97 36.89C69.03 36.89 69.1 36.86 69.15 36.81C69.19 36.75 69.22 36.68 69.22 36.62L69.22 32.97C69.37 32.98 69.57 32.98 69.8 33C70.03 33.01 70.25 33.02 70.42 33.02L70.61 33.02L72.56 36.62C72.6 36.68 72.63 36.75 72.67 36.81C72.71 36.86 72.76 36.89 72.83 36.89L74.48 36.89ZM83.03 34.7C83.22 34.17 83.32 33.52 83.32 32.78L83.32 30.95C83.32 30.21 83.22 29.58 83.03 29.04C82.83 28.51 82.57 28.06 82.22 27.73C81.88 27.39 81.48 27.14 81.01 26.98C80.55 26.82 80.03 26.74 79.48 26.74C78.91 26.74 78.4 26.82 77.94 26.98C77.46 27.14 77.06 27.39 76.72 27.73C76.38 28.06 76.11 28.51 75.92 29.04C75.72 29.58 75.63 30.21 75.63 30.95L75.63 32.78C75.63 33.52 75.72 34.17 75.92 34.7C76.11 35.22 76.38 35.66 76.72 36C77.06 36.33 77.46 36.59 77.94 36.75C78.4 36.91 78.91 37 79.48 37C80.03 37 80.55 36.91 81.01 36.75C81.48 36.59 81.88 36.33 82.22 36C82.57 35.66 82.83 35.22 83.03 34.7ZM91.25 35.93C91.99 35.22 92.36 34.2 92.36 32.86L92.36 30.87C92.36 29.54 91.99 28.51 91.25 27.79C90.52 27.09 89.46 26.74 88.11 26.74C87.86 26.74 87.61 26.74 87.34 26.75C87.07 26.77 86.82 26.78 86.57 26.79C86.32 26.81 86.1 26.83 85.9 26.85C85.69 26.86 85.53 26.89 85.44 26.9C85.32 26.91 85.23 26.96 85.18 27.02C85.11 27.09 85.09 27.18 85.09 27.32L85.09 36.41C85.09 36.55 85.11 36.64 85.18 36.71C85.23 36.78 85.32 36.82 85.44 36.83C85.53 36.85 85.69 36.87 85.9 36.89C86.1 36.9 86.32 36.93 86.57 36.94C86.82 36.95 87.07 36.97 87.34 36.98C87.61 37 87.86 37 88.11 37C89.46 37 90.52 36.64 91.25 35.93ZM109.31 36.67C109.37 36.63 109.4 36.56 109.4 36.47L109.4 35.56C109.4 35.48 109.38 35.41 109.34 35.36C109.3 35.31 109.22 35.28 109.13 35.28L109.1 35.28C108.98 35.29 108.84 35.29 108.68 35.31C108.5 35.32 108.33 35.33 108.14 35.35C107.95 35.36 107.76 35.36 107.56 35.37C107.35 35.39 107.17 35.39 106.99 35.39C106.71 35.39 106.44 35.35 106.21 35.25C105.96 35.17 105.76 35.04 105.58 34.83C105.41 34.63 105.27 34.37 105.18 34.05C105.08 33.72 105.03 33.33 105.03 32.86L105.03 30.87C105.03 30.4 105.08 30 105.18 29.67C105.27 29.35 105.41 29.09 105.58 28.89C105.76 28.7 105.96 28.56 106.21 28.47C106.44 28.39 106.71 28.35 106.99 28.35C107.17 28.35 107.35 28.35 107.56 28.36C107.76 28.37 107.95 28.37 108.14 28.39C108.33 28.4 108.5 28.4 108.68 28.41C108.84 28.43 108.98 28.44 109.1 28.46L109.13 28.46C109.22 28.46 109.3 28.43 109.34 28.37C109.38 28.32 109.4 28.25 109.4 28.17L109.4 27.27C109.4 27.17 109.37 27.09 109.31 27.05C109.26 27.01 109.19 26.98 109.1 26.96C109.04 26.94 108.95 26.93 108.83 26.9C108.69 26.87 108.53 26.85 108.34 26.82C108.15 26.81 107.94 26.78 107.71 26.77C107.48 26.75 107.22 26.74 106.96 26.74C106.56 26.74 106.13 26.79 105.68 26.9C105.23 27.02 104.81 27.23 104.45 27.54C104.07 27.85 103.77 28.27 103.52 28.79C103.27 29.33 103.15 30.02 103.15 30.87L103.15 32.86C103.15 33.7 103.27 34.39 103.52 34.91C103.77 35.44 104.07 35.86 104.45 36.17C104.81 36.48 105.23 36.7 105.68 36.82C106.13 36.94 106.56 37 106.96 37C107.22 37 107.48 36.98 107.71 36.97C107.94 36.95 108.15 36.93 108.34 36.91C108.53 36.89 108.69 36.86 108.83 36.83C108.95 36.82 109.04 36.79 109.1 36.78C109.19 36.75 109.26 36.71 109.31 36.67ZM129.89 34.7C130.08 34.17 130.18 33.52 130.18 32.78L130.18 30.95C130.18 30.21 130.08 29.58 129.89 29.04C129.69 28.51 129.43 28.06 129.08 27.73C128.75 27.39 128.34 27.14 127.87 26.98C127.41 26.82 126.89 26.74 126.34 26.74C125.77 26.74 125.26 26.82 124.8 26.98C124.33 27.14 123.92 27.39 123.58 27.73C123.25 28.06 122.98 28.51 122.79 29.04C122.58 29.58 122.49 30.21 122.49 30.95L122.49 32.78C122.49 33.52 122.58 34.17 122.79 34.7C122.98 35.22 123.25 35.66 123.58 36C123.92 36.33 124.33 36.59 124.8 36.75C125.26 36.91 125.77 37 126.34 37C126.89 37 127.41 36.91 127.87 36.75C128.34 36.59 128.75 36.33 129.08 36C129.43 35.66 129.69 35.22 129.89 34.7ZM101.19 34.98C101.37 34.5 101.46 33.89 101.46 33.17L101.46 27.1C101.46 27.04 101.44 26.97 101.38 26.91C101.33 26.87 101.26 26.85 101.19 26.85L99.85 26.85C99.79 26.85 99.72 26.87 99.67 26.91C99.61 26.97 99.58 27.04 99.58 27.1L99.58 33.18C99.58 33.56 99.56 33.9 99.5 34.18C99.45 34.47 99.36 34.71 99.22 34.9C99.07 35.09 98.88 35.22 98.65 35.32C98.41 35.41 98.11 35.45 97.75 35.45C97.38 35.45 97.07 35.41 96.84 35.32C96.61 35.22 96.42 35.09 96.29 34.9C96.14 34.71 96.04 34.47 95.99 34.18C95.94 33.9 95.91 33.56 95.91 33.18L95.91 27.1C95.91 27.04 95.88 26.97 95.83 26.91C95.77 26.87 95.71 26.85 95.64 26.85L94.3 26.85C94.23 26.85 94.17 26.87 94.11 26.91C94.06 26.97 94.03 27.04 94.03 27.1L94.03 33.17C94.03 33.89 94.13 34.5 94.31 34.98C94.49 35.47 94.75 35.86 95.08 36.16C95.41 36.45 95.8 36.67 96.26 36.79C96.71 36.93 97.21 37 97.75 37C98.29 37 98.79 36.93 99.25 36.79C99.69 36.67 100.09 36.45 100.42 36.16C100.75 35.86 101 35.47 101.19 34.98ZM117.42 28.35C117.48 28.31 117.5 28.24 117.5 28.17L117.5 27.1C117.5 27.04 117.48 26.97 117.42 26.91C117.37 26.87 117.3 26.85 117.23 26.85L110.63 26.85C110.56 26.85 110.49 26.87 110.44 26.91C110.38 26.97 110.35 27.04 110.35 27.1L110.35 28.17C110.35 28.24 110.38 28.31 110.44 28.35C110.49 28.39 110.56 28.41 110.63 28.41L112.99 28.41L112.99 36.62C112.99 36.68 113.02 36.75 113.07 36.81C113.12 36.86 113.19 36.89 113.26 36.89L114.6 36.89C114.67 36.89 114.73 36.86 114.79 36.81C114.84 36.75 114.87 36.68 114.87 36.62L114.87 28.41L117.23 28.41C117.3 28.41 117.37 28.39 117.42 28.35ZM120.65 36.81C120.71 36.75 120.73 36.68 120.73 36.62L120.73 27.1C120.73 27.04 120.71 26.97 120.65 26.91C120.6 26.87 120.53 26.85 120.46 26.85L119.12 26.85C119.06 26.85 118.99 26.87 118.94 26.91C118.88 26.97 118.85 27.04 118.85 27.1L118.85 36.62C118.85 36.68 118.88 36.75 118.94 36.81C118.99 36.86 119.06 36.89 119.12 36.89L120.46 36.89C120.53 36.89 120.6 36.86 120.65 36.81ZM139.39 36.72C139.49 36.63 139.54 36.5 139.54 36.35L139.54 27.1C139.54 26.93 139.46 26.85 139.28 26.85L138.12 26.85C137.95 26.85 137.87 26.93 137.87 27.1L137.87 34.21C137.87 34.29 137.84 34.33 137.8 34.33C137.76 34.33 137.72 34.29 137.69 34.22L134.54 27.28C134.46 27.1 134.38 26.98 134.3 26.93C134.2 26.87 134.1 26.85 133.95 26.85L132.49 26.85C132.34 26.85 132.2 26.9 132.11 27C132 27.1 131.95 27.24 131.95 27.39L131.95 36.62C131.95 36.68 131.97 36.75 132.03 36.81C132.08 36.86 132.15 36.89 132.22 36.89L133.37 36.89C133.43 36.89 133.5 36.86 133.56 36.81C133.6 36.75 133.62 36.68 133.62 36.62L133.62 29.82C133.62 29.75 133.65 29.71 133.69 29.71C133.73 29.71 133.77 29.75 133.81 29.82L136.81 36.4C136.92 36.64 137.04 36.78 137.19 36.82C137.33 36.86 137.47 36.89 137.64 36.89L139 36.89C139.15 36.89 139.28 36.83 139.39 36.72ZM63.49 28.64C63.83 28.87 63.99 29.28 63.99 29.85L63.99 29.97C63.99 30.52 63.84 30.93 63.53 31.2C63.22 31.47 62.7 31.6 61.97 31.6C61.91 31.6 61.83 31.6 61.72 31.59L61.72 31.59C61.6 31.59 61.49 31.59 61.37 31.58L61.37 31.58C61.25 31.58 61.13 31.58 61.02 31.56L60.76 31.56L60.76 28.33C60.83 28.32 60.91 28.32 61.02 28.31L61.02 28.31C61.11 28.31 61.22 28.31 61.34 28.29L61.34 28.29C61.47 28.29 61.57 28.29 61.7 28.28L61.97 28.28C62.64 28.28 63.16 28.4 63.49 28.64ZM90.3 29.63C90.42 29.95 90.48 30.37 90.48 30.87L90.48 32.87C90.48 33.37 90.42 33.79 90.3 34.12C90.18 34.45 90 34.71 89.8 34.9C89.59 35.1 89.33 35.24 89.05 35.31C88.75 35.39 88.44 35.43 88.1 35.43C87.84 35.43 87.63 35.43 87.45 35.41C87.27 35.4 87.11 35.4 86.96 35.39L86.96 28.36C87.11 28.35 87.27 28.35 87.45 28.33C87.63 28.32 87.84 28.32 88.1 28.32L88.1 28.32C88.44 28.32 88.75 28.36 89.05 28.43C89.33 28.51 89.59 28.64 89.8 28.83C90 29.04 90.18 29.29 90.3 29.63ZM71.95 28.68C72.29 28.91 72.45 29.28 72.45 29.79L72.45 29.91C72.45 30.51 72.29 30.91 71.97 31.14C71.64 31.37 71.13 31.48 70.42 31.48C70.37 31.48 70.29 31.48 70.18 31.47L70.18 31.47C70.06 31.47 69.95 31.47 69.83 31.45C69.71 31.45 69.59 31.45 69.48 31.44L69.22 31.44L69.22 28.4C69.29 28.39 69.37 28.39 69.48 28.37L69.48 28.37C69.57 28.37 69.68 28.37 69.8 28.36C69.92 28.36 70.03 28.36 70.15 28.35L70.42 28.35C71.1 28.35 71.61 28.46 71.95 28.68ZM80.95 28.98C81.28 29.4 81.44 30.05 81.44 30.95L81.44 32.78C81.44 33.68 81.28 34.33 80.95 34.74C80.64 35.16 80.14 35.36 79.48 35.36C78.8 35.36 78.3 35.16 77.99 34.74C77.67 34.33 77.51 33.68 77.51 32.78L77.51 30.95C77.51 30.05 77.67 29.4 77.99 28.98C78.3 28.58 78.8 28.37 79.48 28.37C80.14 28.37 80.64 28.58 80.95 28.98ZM127.81 28.98C128.14 29.4 128.3 30.05 128.3 30.95L128.3 32.78C128.3 33.68 128.14 34.33 127.81 34.74C127.5 35.16 127 35.36 126.34 35.36C125.66 35.36 125.16 35.16 124.85 34.74C124.53 34.33 124.37 33.68 124.37 32.78L124.37 30.95C124.37 30.05 124.53 29.4 124.85 28.98C125.16 28.58 125.66 28.37 126.34 28.37C127 28.37 127.5 28.58 127.81 28.98Z" fill="#5C8EE6" fill-opacity="1.000000" fill-rule="evenodd"></path>
    </g>
  </symbol>
  <symbol fill="none" xmlns="http://www.w3.org/2000/svg" xmlns:xlink="http://www.w3.org/1999/xlink" viewBox="0 0 140 44" id="logo-light">
    <desc>Created with Pixso.</desc>
    <defs>
      <clipPath id="clip191_1609">
        <rect id="logo" width="140.000000" height="44.000000" fill="white" fill-opacity="0"></rect>
      </clipPath>
    </defs>
    <rect id="logo" width="140.000000" height="44.000000" fill="#FFFFFF" fill-opacity="0"></rect>
    <g clip-path="url(#clip191_1609)">
      <path id="Vector" d="M21.99 4.89C24.28 4.89 26.47 5.34 28.47 6.16L28.47 12.35L28.47 21.81C28.47 25.36 25.59 28.24 22.04 28.24C20.53 28.24 19.15 27.72 18.05 26.85L18.05 32.54C19.29 33 20.64 33.25 22.04 33.25C29.02 33.25 33.51 27.74 33.51 21.05L33.51 3.25C30.16 1.19 26.21 0 21.99 0C9.84 0 0 9.84 0 21.99C0 28.92 3.21 35.11 8.22 39.14L8.22 32.13C6.13 29.3 4.89 25.79 4.89 21.99C4.89 12.54 12.54 4.89 21.99 4.89Z" fill="#FFFFFF" fill-opacity="1.000000" fill-rule="evenodd"></path>
      <path id="Vector" d="M22.06 39.1C19.76 39.1 17.58 38.65 15.58 37.83L15.58 31.64L15.58 22.18C15.58 18.63 18.45 15.75 22 15.75C23.51 15.75 24.9 16.27 26 17.14L26 11.45C24.75 10.99 23.41 10.74 22 10.74C15.02 10.74 10.54 16.25 10.54 22.94L10.54 40.74C13.89 42.8 17.83 44 22.06 44C34.2 44 44.05 34.15 44.05 22C44.05 15.07 40.84 8.88 35.82 4.85L35.82 11.86C37.92 14.69 39.16 18.2 39.16 22C39.16 31.45 31.5 39.1 22.06 39.1Z" fill="#5C8EE6" fill-opacity="1.000000" fill-rule="evenodd"></path>
      <path id="Vector" d="M71.19 22.8C71.26 22.74 71.3 22.65 71.3 22.55L71.3 22.51C71.28 22.49 71.28 22.46 71.28 22.44L67.8 9.16C67.67 8.67 67.48 8.27 67.25 7.99C67.02 7.72 66.76 7.48 66.49 7.33C66.21 7.19 65.92 7.1 65.64 7.06C65.34 7.02 65.09 7 64.86 7C64.62 7 64.37 7.02 64.09 7.06C63.8 7.1 63.52 7.19 63.25 7.33C62.97 7.48 62.7 7.72 62.46 7.99C62.23 8.27 62.04 8.67 61.91 9.16L58.44 22.44L58.44 22.51C58.42 22.53 58.42 22.53 58.42 22.55C58.42 22.65 58.46 22.74 58.52 22.8C58.58 22.87 58.69 22.91 58.8 22.91L61.04 22.91C61.15 22.91 61.23 22.87 61.3 22.8C61.36 22.74 61.42 22.65 61.45 22.55L62.42 18.52L67.29 18.52L68.27 22.55C68.29 22.65 68.35 22.74 68.42 22.8C68.48 22.87 68.57 22.91 68.67 22.91L70.92 22.91C71.02 22.91 71.13 22.87 71.19 22.8ZM101.52 22.8C101.58 22.74 101.62 22.65 101.62 22.55L101.62 22.51C101.6 22.49 101.6 22.46 101.6 22.44L98.13 9.16C98 8.67 97.81 8.27 97.57 7.99C97.34 7.72 97.09 7.48 96.81 7.33C96.54 7.19 96.24 7.1 95.96 7.06C95.67 7.02 95.41 7 95.18 7C94.95 7 94.69 7.02 94.42 7.06C94.12 7.1 93.84 7.19 93.57 7.33C93.29 7.48 93.02 7.72 92.79 7.99C92.55 8.27 92.36 8.67 92.23 9.16L88.76 22.44L88.76 22.51C88.74 22.53 88.74 22.53 88.74 22.55C88.74 22.65 88.78 22.74 88.84 22.8C88.91 22.87 89.01 22.91 89.12 22.91L91.37 22.91C91.47 22.91 91.56 22.87 91.62 22.8C91.68 22.74 91.75 22.65 91.77 22.55L92.74 18.52L97.62 18.52L98.59 22.55C98.61 22.65 98.68 22.74 98.74 22.8C98.8 22.87 98.89 22.91 98.99 22.91L101.24 22.91C101.35 22.91 101.45 22.87 101.52 22.8ZM127.94 22.57C128.02 22.51 128.07 22.4 128.07 22.25L128.07 20.83C128.07 20.7 128.05 20.6 127.98 20.51C127.92 20.43 127.79 20.39 127.64 20.39L127.6 20.39C127.41 20.41 127.2 20.41 126.94 20.43C126.67 20.45 126.39 20.47 126.1 20.49C125.8 20.51 125.5 20.51 125.19 20.54C124.87 20.56 124.57 20.56 124.3 20.56C123.85 20.56 123.43 20.49 123.07 20.35C122.68 20.22 122.37 20.01 122.09 19.69C121.82 19.37 121.6 18.97 121.46 18.46C121.31 17.95 121.22 17.34 121.22 16.59L121.22 13.48C121.22 12.74 121.31 12.1 121.46 11.59C121.6 11.08 121.82 10.68 122.09 10.36C122.37 10.07 122.68 9.86 123.07 9.71C123.43 9.58 123.85 9.52 124.3 9.52C124.57 9.52 124.87 9.52 125.19 9.54C125.5 9.56 125.8 9.56 126.1 9.58C126.39 9.6 126.67 9.6 126.94 9.62C127.2 9.64 127.41 9.67 127.6 9.69L127.64 9.69C127.79 9.69 127.92 9.64 127.98 9.56C128.05 9.47 128.07 9.37 128.07 9.24L128.07 7.82C128.07 7.67 128.02 7.55 127.94 7.48C127.86 7.42 127.75 7.38 127.6 7.33C127.52 7.31 127.37 7.29 127.18 7.25C126.97 7.21 126.71 7.16 126.41 7.12C126.12 7.1 125.78 7.06 125.42 7.04C125.06 7.02 124.66 7 124.25 7C123.62 7 122.94 7.08 122.24 7.25C121.54 7.44 120.88 7.76 120.31 8.25C119.72 8.73 119.25 9.39 118.85 10.22C118.47 11.06 118.28 12.14 118.28 13.48L118.28 16.59C118.28 17.91 118.47 18.99 118.85 19.82C119.25 20.64 119.72 21.3 120.31 21.79C120.88 22.27 121.54 22.61 122.24 22.8C122.94 22.99 123.62 23.08 124.25 23.08C124.66 23.08 125.06 23.06 125.42 23.04C125.78 23.01 126.12 22.97 126.41 22.95C126.71 22.91 126.97 22.87 127.18 22.82C127.37 22.8 127.52 22.76 127.6 22.74C127.75 22.7 127.86 22.63 127.94 22.57ZM139.91 22.65C139.98 22.59 140 22.49 140 22.34L140 20.98C140 20.87 139.95 20.77 139.87 20.68C139.78 20.6 139.68 20.56 139.57 20.56L135.25 20.56C134.64 20.56 134.19 20.43 133.96 20.18C133.7 19.92 133.58 19.43 133.58 18.73L133.58 16L139.32 16C139.42 16 139.53 15.96 139.62 15.87C139.7 15.79 139.74 15.68 139.74 15.58L139.74 14.05C139.74 13.95 139.7 13.84 139.62 13.75C139.53 13.67 139.42 13.63 139.32 13.63L133.58 13.63L133.58 11.34C133.58 10.64 133.7 10.15 133.96 9.9C134.19 9.64 134.64 9.52 135.25 9.52L139.57 9.52C139.68 9.52 139.78 9.47 139.87 9.39C139.95 9.3 140 9.2 140 9.09L140 7.74C140 7.59 139.98 7.48 139.91 7.42C139.85 7.36 139.72 7.31 139.57 7.29C139.4 7.27 139.21 7.23 139.02 7.19C138.81 7.16 138.56 7.12 138.26 7.1C137.94 7.08 137.58 7.04 137.16 7.02C136.71 7 136.18 7 135.55 7L135.55 7C134.85 7 134.21 7.06 133.62 7.16C133.03 7.27 132.5 7.48 132.07 7.8C131.63 8.12 131.27 8.56 131.01 9.14C130.76 9.71 130.63 10.43 130.63 11.34L130.63 18.73C130.63 19.65 130.76 20.37 131.01 20.94C131.27 21.51 131.63 21.93 132.07 22.25C132.5 22.57 133.03 22.8 133.62 22.91C134.21 23.01 134.85 23.08 135.55 23.08L135.55 23.08C136.18 23.08 136.71 23.08 137.16 23.06C137.58 23.04 137.94 22.99 138.26 22.97C138.56 22.95 138.81 22.91 139.02 22.87C139.21 22.85 139.4 22.8 139.57 22.78C139.72 22.76 139.85 22.72 139.91 22.65ZM81.7 22.65C81.77 22.59 81.79 22.49 81.79 22.34L81.79 20.98C81.79 20.87 81.75 20.77 81.66 20.68C81.58 20.6 81.47 20.56 81.36 20.56L77.46 20.56C76.85 20.56 76.41 20.43 76.17 20.18C75.94 19.92 75.81 19.43 75.81 18.73L75.81 7.59C75.81 7.48 75.77 7.38 75.68 7.29C75.6 7.21 75.49 7.16 75.39 7.16L73.29 7.16C73.18 7.16 73.08 7.21 72.99 7.29C72.91 7.38 72.87 7.48 72.87 7.59L72.87 18.73C72.87 19.65 72.99 20.37 73.25 20.94C73.5 21.51 73.84 21.93 74.29 22.25C74.73 22.57 75.24 22.8 75.83 22.91C76.43 23.01 77.06 23.08 77.76 23.08L77.76 23.08C78.04 23.08 78.35 23.08 78.72 23.06C79.08 23.04 79.41 23.01 79.75 22.99C80.09 22.97 80.41 22.93 80.71 22.89C80.98 22.87 81.22 22.82 81.36 22.78C81.51 22.76 81.64 22.72 81.7 22.65ZM86.62 22.78C86.7 22.7 86.75 22.59 86.75 22.49L86.75 7.57C86.75 7.46 86.7 7.36 86.62 7.27C86.53 7.21 86.43 7.16 86.32 7.16L84.22 7.16C84.12 7.16 84.01 7.21 83.93 7.27C83.84 7.36 83.8 7.46 83.8 7.57L83.8 22.49C83.8 22.59 83.84 22.7 83.93 22.78C84.01 22.87 84.12 22.91 84.22 22.91L86.32 22.91C86.43 22.91 86.53 22.87 86.62 22.78ZM115.29 22.65C115.44 22.51 115.52 22.29 115.52 22.06L115.52 7.57C115.52 7.29 115.4 7.16 115.12 7.16L113.3 7.16C113.02 7.16 112.89 7.29 112.89 7.57L112.89 18.71C112.89 18.84 112.85 18.9 112.79 18.9C112.73 18.9 112.66 18.84 112.62 18.73L107.68 7.84C107.56 7.57 107.43 7.38 107.3 7.29C107.15 7.21 106.98 7.16 106.75 7.16L104.46 7.16C104.23 7.16 104.02 7.25 103.87 7.4C103.7 7.57 103.61 7.78 103.61 8.01L103.61 22.49C103.61 22.59 103.66 22.7 103.74 22.78C103.83 22.87 103.93 22.91 104.04 22.91L105.84 22.91C105.94 22.91 106.05 22.87 106.14 22.78C106.2 22.7 106.24 22.59 106.24 22.49L106.24 11.83C106.24 11.72 106.28 11.66 106.35 11.66C106.41 11.66 106.47 11.72 106.54 11.83L111.24 22.15C111.41 22.53 111.6 22.74 111.84 22.8C112.05 22.87 112.28 22.91 112.53 22.91L114.67 22.91C114.91 22.91 115.12 22.82 115.29 22.65ZM95.41 9.54C95.46 9.6 95.5 9.69 95.52 9.81L97.04 16.11L93.31 16.11L94.84 9.81C94.86 9.69 94.9 9.6 94.95 9.54C94.99 9.5 95.07 9.47 95.18 9.47C95.29 9.47 95.37 9.5 95.41 9.54ZM65.09 9.54C65.13 9.6 65.17 9.69 65.2 9.81L66.72 16.11L62.99 16.11L64.52 9.81C64.54 9.69 64.58 9.6 64.62 9.54C64.67 9.5 64.75 9.47 64.86 9.47C64.96 9.47 65.05 9.5 65.09 9.54Z" fill="#FFFFFF" fill-opacity="1.000000" fill-rule="evenodd"></path>
      <path id="Vector" d="M65.56 31.48C65.76 31.08 65.87 30.58 65.87 29.98L65.87 29.86C65.87 29.27 65.76 28.77 65.56 28.36C65.34 27.97 65.06 27.64 64.7 27.4C64.34 27.16 63.93 26.98 63.47 26.89C62.99 26.79 62.49 26.74 61.98 26.74C61.48 26.74 60.99 26.75 60.53 26.78C60.07 26.82 59.67 26.86 59.32 26.91C59.18 26.93 59.07 26.97 59.01 27.02C58.93 27.09 58.89 27.18 58.89 27.32L58.89 36.62C58.89 36.68 58.91 36.75 58.97 36.81C59.02 36.86 59.09 36.89 59.16 36.89L60.51 36.89C60.57 36.89 60.64 36.86 60.7 36.81C60.74 36.75 60.76 36.68 60.76 36.62L60.76 33.09C60.91 33.1 61.11 33.1 61.34 33.12C61.59 33.13 61.79 33.14 61.97 33.14C62.49 33.14 62.99 33.09 63.47 32.98C63.93 32.89 64.34 32.71 64.7 32.45C65.06 32.21 65.34 31.89 65.56 31.48ZM74.48 36.89C74.59 36.89 74.64 36.83 74.64 36.72C74.64 36.68 74.63 36.64 74.61 36.62L72.49 32.67C73.06 32.45 73.51 32.12 73.83 31.67C74.17 31.23 74.33 30.63 74.33 29.91L74.33 29.79C74.33 29.21 74.22 28.73 74.02 28.33C73.8 27.94 73.52 27.63 73.15 27.4C72.8 27.17 72.38 27 71.92 26.89C71.45 26.79 70.95 26.74 70.44 26.74C69.94 26.74 69.45 26.75 68.99 26.78C68.53 26.82 68.13 26.86 67.78 26.91C67.64 26.93 67.53 26.97 67.47 27.02C67.38 27.09 67.34 27.18 67.34 27.32L67.34 36.62C67.34 36.68 67.37 36.75 67.43 36.81C67.48 36.86 67.55 36.89 67.61 36.89L68.97 36.89C69.03 36.89 69.1 36.86 69.15 36.81C69.19 36.75 69.22 36.68 69.22 36.62L69.22 32.97C69.37 32.98 69.57 32.98 69.8 33C70.03 33.01 70.25 33.02 70.42 33.02L70.61 33.02L72.56 36.62C72.6 36.68 72.63 36.75 72.67 36.81C72.71 36.86 72.76 36.89 72.83 36.89L74.48 36.89ZM83.03 34.7C83.22 34.17 83.32 33.52 83.32 32.78L83.32 30.95C83.32 30.21 83.22 29.58 83.03 29.04C82.83 28.51 82.57 28.06 82.22 27.73C81.88 27.39 81.48 27.14 81.01 26.98C80.55 26.82 80.03 26.74 79.48 26.74C78.91 26.74 78.4 26.82 77.94 26.98C77.46 27.14 77.06 27.39 76.72 27.73C76.38 28.06 76.11 28.51 75.92 29.04C75.72 29.58 75.63 30.21 75.63 30.95L75.63 32.78C75.63 33.52 75.72 34.17 75.92 34.7C76.11 35.22 76.38 35.66 76.72 36C77.06 36.33 77.46 36.59 77.94 36.75C78.4 36.91 78.91 37 79.48 37C80.03 37 80.55 36.91 81.01 36.75C81.48 36.59 81.88 36.33 82.22 36C82.57 35.66 82.83 35.22 83.03 34.7ZM91.25 35.93C91.99 35.22 92.36 34.2 92.36 32.86L92.36 30.87C92.36 29.54 91.99 28.51 91.25 27.79C90.52 27.09 89.46 26.74 88.11 26.74C87.86 26.74 87.61 26.74 87.34 26.75C87.07 26.77 86.82 26.78 86.57 26.79C86.32 26.81 86.1 26.83 85.9 26.85C85.69 26.86 85.53 26.89 85.44 26.9C85.32 26.91 85.23 26.96 85.18 27.02C85.11 27.09 85.09 27.18 85.09 27.32L85.09 36.41C85.09 36.55 85.11 36.64 85.18 36.71C85.23 36.78 85.32 36.82 85.44 36.83C85.53 36.85 85.69 36.87 85.9 36.89C86.1 36.9 86.32 36.93 86.57 36.94C86.82 36.95 87.07 36.97 87.34 36.98C87.61 37 87.86 37 88.11 37C89.46 37 90.52 36.64 91.25 35.93ZM109.31 36.67C109.37 36.63 109.4 36.56 109.4 36.47L109.4 35.56C109.4 35.48 109.38 35.41 109.34 35.36C109.3 35.31 109.22 35.28 109.13 35.28L109.1 35.28C108.98 35.29 108.84 35.29 108.68 35.31C108.5 35.32 108.33 35.33 108.14 35.35C107.95 35.36 107.76 35.36 107.56 35.37C107.35 35.39 107.17 35.39 106.99 35.39C106.71 35.39 106.44 35.35 106.21 35.25C105.96 35.17 105.76 35.04 105.58 34.83C105.41 34.63 105.27 34.37 105.18 34.05C105.08 33.72 105.03 33.33 105.03 32.86L105.03 30.87C105.03 30.4 105.08 30 105.18 29.67C105.27 29.35 105.41 29.09 105.58 28.89C105.76 28.7 105.96 28.56 106.21 28.47C106.44 28.39 106.71 28.35 106.99 28.35C107.17 28.35 107.35 28.35 107.56 28.36C107.76 28.37 107.95 28.37 108.14 28.39C108.33 28.4 108.5 28.4 108.68 28.41C108.84 28.43 108.98 28.44 109.1 28.46L109.13 28.46C109.22 28.46 109.3 28.43 109.34 28.37C109.38 28.32 109.4 28.25 109.4 28.17L109.4 27.27C109.4 27.17 109.37 27.09 109.31 27.05C109.26 27.01 109.19 26.98 109.1 26.96C109.04 26.94 108.95 26.93 108.83 26.9C108.69 26.87 108.53 26.85 108.34 26.82C108.15 26.81 107.94 26.78 107.71 26.77C107.48 26.75 107.22 26.74 106.96 26.74C106.56 26.74 106.13 26.79 105.68 26.9C105.23 27.02 104.81 27.23 104.45 27.54C104.07 27.85 103.77 28.27 103.52 28.79C103.27 29.33 103.15 30.02 103.15 30.87L103.15 32.86C103.15 33.7 103.27 34.39 103.52 34.91C103.77 35.44 104.07 35.86 104.45 36.17C104.81 36.48 105.23 36.7 105.68 36.82C106.13 36.94 106.56 37 106.96 37C107.22 37 107.48 36.98 107.71 36.97C107.94 36.95 108.15 36.93 108.34 36.91C108.53 36.89 108.69 36.86 108.83 36.83C108.95 36.82 109.04 36.79 109.1 36.78C109.19 36.75 109.26 36.71 109.31 36.67ZM129.89 34.7C130.08 34.17 130.18 33.52 130.18 32.78L130.18 30.95C130.18 30.21 130.08 29.58 129.89 29.04C129.69 28.51 129.43 28.06 129.08 27.73C128.75 27.39 128.34 27.14 127.87 26.98C127.41 26.82 126.89 26.74 126.34 26.74C125.77 26.74 125.26 26.82 124.8 26.98C124.33 27.14 123.92 27.39 123.58 27.73C123.25 28.06 122.98 28.51 122.79 29.04C122.58 29.58 122.49 30.21 122.49 30.95L122.49 32.78C122.49 33.52 122.58 34.17 122.79 34.7C122.98 35.22 123.25 35.66 123.58 36C123.92 36.33 124.33 36.59 124.8 36.75C125.26 36.91 125.77 37 126.34 37C126.89 37 127.41 36.91 127.87 36.75C128.34 36.59 128.75 36.33 129.08 36C129.43 35.66 129.69 35.22 129.89 34.7ZM101.19 34.98C101.37 34.5 101.46 33.89 101.46 33.17L101.46 27.1C101.46 27.04 101.44 26.97 101.38 26.91C101.33 26.87 101.26 26.85 101.19 26.85L99.85 26.85C99.79 26.85 99.72 26.87 99.67 26.91C99.61 26.97 99.58 27.04 99.58 27.1L99.58 33.18C99.58 33.56 99.56 33.9 99.5 34.18C99.45 34.47 99.36 34.71 99.22 34.9C99.07 35.09 98.88 35.22 98.65 35.32C98.41 35.41 98.11 35.45 97.75 35.45C97.38 35.45 97.07 35.41 96.84 35.32C96.61 35.22 96.42 35.09 96.29 34.9C96.14 34.71 96.04 34.47 95.99 34.18C95.94 33.9 95.91 33.56 95.91 33.18L95.91 27.1C95.91 27.04 95.88 26.97 95.83 26.91C95.77 26.87 95.71 26.85 95.64 26.85L94.3 26.85C94.23 26.85 94.17 26.87 94.11 26.91C94.06 26.97 94.03 27.04 94.03 27.1L94.03 33.17C94.03 33.89 94.13 34.5 94.31 34.98C94.49 35.47 94.75 35.86 95.08 36.16C95.41 36.45 95.8 36.67 96.26 36.79C96.71 36.93 97.21 37 97.75 37C98.29 37 98.79 36.93 99.25 36.79C99.69 36.67 100.09 36.45 100.42 36.16C100.75 35.86 101 35.47 101.19 34.98ZM117.42 28.35C117.48 28.31 117.5 28.24 117.5 28.17L117.5 27.1C117.5 27.04 117.48 26.97 117.42 26.91C117.37 26.87 117.3 26.85 117.23 26.85L110.63 26.85C110.56 26.85 110.49 26.87 110.44 26.91C110.38 26.97 110.35 27.04 110.35 27.1L110.35 28.17C110.35 28.24 110.38 28.31 110.44 28.35C110.49 28.39 110.56 28.41 110.63 28.41L112.99 28.41L112.99 36.62C112.99 36.68 113.02 36.75 113.07 36.81C113.12 36.86 113.19 36.89 113.26 36.89L114.6 36.89C114.67 36.89 114.73 36.86 114.79 36.81C114.84 36.75 114.87 36.68 114.87 36.62L114.87 28.41L117.23 28.41C117.3 28.41 117.37 28.39 117.42 28.35ZM120.65 36.81C120.71 36.75 120.73 36.68 120.73 36.62L120.73 27.1C120.73 27.04 120.71 26.97 120.65 26.91C120.6 26.87 120.53 26.85 120.46 26.85L119.12 26.85C119.06 26.85 118.99 26.87 118.94 26.91C118.88 26.97 118.85 27.04 118.85 27.1L118.85 36.62C118.85 36.68 118.88 36.75 118.94 36.81C118.99 36.86 119.06 36.89 119.12 36.89L120.46 36.89C120.53 36.89 120.6 36.86 120.65 36.81ZM139.39 36.72C139.49 36.63 139.54 36.5 139.54 36.35L139.54 27.1C139.54 26.93 139.46 26.85 139.28 26.85L138.12 26.85C137.95 26.85 137.87 26.93 137.87 27.1L137.87 34.21C137.87 34.29 137.84 34.33 137.8 34.33C137.76 34.33 137.72 34.29 137.69 34.22L134.54 27.28C134.46 27.1 134.38 26.98 134.3 26.93C134.2 26.87 134.1 26.85 133.95 26.85L132.49 26.85C132.34 26.85 132.2 26.9 132.11 27C132 27.1 131.95 27.24 131.95 27.39L131.95 36.62C131.95 36.68 131.97 36.75 132.03 36.81C132.08 36.86 132.15 36.89 132.22 36.89L133.37 36.89C133.43 36.89 133.5 36.86 133.56 36.81C133.6 36.75 133.62 36.68 133.62 36.62L133.62 29.82C133.62 29.75 133.65 29.71 133.69 29.71C133.73 29.71 133.77 29.75 133.81 29.82L136.81 36.4C136.92 36.64 137.04 36.78 137.19 36.82C137.33 36.86 137.47 36.89 137.64 36.89L139 36.89C139.15 36.89 139.28 36.83 139.39 36.72ZM63.49 28.64C63.83 28.87 63.99 29.28 63.99 29.85L63.99 29.97C63.99 30.52 63.84 30.93 63.53 31.2C63.22 31.47 62.7 31.6 61.97 31.6C61.91 31.6 61.83 31.6 61.72 31.59L61.72 31.59C61.6 31.59 61.49 31.59 61.37 31.58L61.37 31.58C61.25 31.58 61.13 31.58 61.02 31.56L60.76 31.56L60.76 28.33C60.83 28.32 60.91 28.32 61.02 28.31L61.02 28.31C61.11 28.31 61.22 28.31 61.34 28.29L61.34 28.29C61.47 28.29 61.57 28.29 61.7 28.28L61.97 28.28C62.64 28.28 63.16 28.4 63.49 28.64ZM90.3 29.63C90.42 29.95 90.48 30.37 90.48 30.87L90.48 32.87C90.48 33.37 90.42 33.79 90.3 34.12C90.18 34.45 90 34.71 89.8 34.9C89.59 35.1 89.33 35.24 89.05 35.31C88.75 35.39 88.44 35.43 88.1 35.43C87.84 35.43 87.63 35.43 87.45 35.41C87.27 35.4 87.11 35.4 86.96 35.39L86.96 28.36C87.11 28.35 87.27 28.35 87.45 28.33C87.63 28.32 87.84 28.32 88.1 28.32L88.1 28.32C88.44 28.32 88.75 28.36 89.05 28.43C89.33 28.51 89.59 28.64 89.8 28.83C90 29.04 90.18 29.29 90.3 29.63ZM71.95 28.68C72.29 28.91 72.45 29.28 72.45 29.79L72.45 29.91C72.45 30.51 72.29 30.91 71.97 31.14C71.64 31.37 71.13 31.48 70.42 31.48C70.37 31.48 70.29 31.48 70.18 31.47L70.18 31.47C70.06 31.47 69.95 31.47 69.83 31.45C69.71 31.45 69.59 31.45 69.48 31.44L69.22 31.44L69.22 28.4C69.29 28.39 69.37 28.39 69.48 28.37L69.48 28.37C69.57 28.37 69.68 28.37 69.8 28.36C69.92 28.36 70.03 28.36 70.15 28.35L70.42 28.35C71.1 28.35 71.61 28.46 71.95 28.68ZM80.95 28.98C81.28 29.4 81.44 30.05 81.44 30.95L81.44 32.78C81.44 33.68 81.28 34.33 80.95 34.74C80.64 35.16 80.14 35.36 79.48 35.36C78.8 35.36 78.3 35.16 77.99 34.74C77.67 34.33 77.51 33.68 77.51 32.78L77.51 30.95C77.51 30.05 77.67 29.4 77.99 28.98C78.3 28.58 78.8 28.37 79.48 28.37C80.14 28.37 80.64 28.58 80.95 28.98ZM127.81 28.98C128.14 29.4 128.3 30.05 128.3 30.95L128.3 32.78C128.3 33.68 128.14 34.33 127.81 34.74C127.5 35.16 127 35.36 126.34 35.36C125.66 35.36 125.16 35.16 124.85 34.74C124.53 34.33 124.37 33.68 124.37 32.78L124.37 30.95C124.37 30.05 124.53 29.4 124.85 28.98C125.16 28.58 125.66 28.37 126.34 28.37C127 28.37 127.5 28.58 127.81 28.98Z" fill="#5C8EE6" fill-opacity="1.000000" fill-rule="evenodd"></path>
    </g>
  </symbol>
  <symbol  xmlns="http://www.w3.org/2000/svg" xmlns:xlink="http://www.w3.org/1999/xlink" viewBox="0 0 24 24" id="phone">
    <desc>Created with Pixso.</desc>
    <defs></defs>
    <rect id="phone" width="24.000000" height="24.000000" fill="#FFFFFF" fill-opacity="0"></rect>
    <path id="Vector" d="M19.96 16.08L19.21 19.23C19.12 19.7 18.75 20.01 18.28 20.01C10.4 19.98 4 13.58 4 5.7C4 5.23 4.28 4.86 4.75 4.76L7.9 4.01C8.34 3.92 8.81 4.17 9 4.58L10.46 7.98C10.62 8.39 10.53 8.86 10.18 9.11L8.5 10.48C9.56 12.64 11.31 14.39 13.5 15.45L14.87 13.76C15.12 13.45 15.59 13.33 16 13.48L19.4 14.95C19.81 15.17 20.06 15.64 19.96 16.08Z"  fill-opacity="1.000000" fill-rule="evenodd"></path>
  </symbol>
  <symbol fill="none" xmlns="http://www.w3.org/2000/svg" viewBox="0 0 36 36" id="speed">
    <path d="M11.625 13.875C10.6406 13.875 9.875 14.6953 9.875 15.625C9.875 16.6094 10.6406 17.375 11.625 17.375C12.5547 17.375 13.375 16.6094 13.375 15.625C13.375 14.6953 12.5547 13.875 11.625 13.875ZM17.75 6C9.05469 6 2 13.0547 2 21.75C2 24.6484 2.76562 27.3828 4.13281 29.6797C4.40625 30.2266 5.00781 30.5547 5.60938 30.5547H29.8359C30.4375 30.5547 31.0391 30.2266 31.3672 29.6797C32.6797 27.3828 33.5 24.6484 33.5 21.75C33.5 13.0547 26.4453 6 17.75 6ZM17.75 27.875C16.4922 27.875 15.5625 26.9453 15.5625 25.6875C15.5625 24.4844 16.4922 23.5 17.75 23.5C18.9531 23.5 19.9375 24.4844 19.9375 25.6875C19.9375 26.9453 18.9531 27.875 17.75 27.875ZM29.3438 27.875H22.0156C22.3438 27.2188 22.5625 26.5078 22.5625 25.6875C22.5625 25.3594 22.5078 25.0312 22.3984 24.7031L27.4297 22.5703C28.0859 22.2422 28.4141 21.4766 28.1406 20.8203C27.8125 20.1641 27.0469 19.8359 26.3906 20.1094L21.1953 22.3516C20.3203 21.4766 19.0625 20.875 17.75 20.875C15.0703 20.875 12.9375 23.0625 12.9375 25.6875C12.9375 26.5078 13.1016 27.2188 13.4844 27.875H6.10156C5.11719 26.0156 4.625 23.9375 4.625 21.75C4.625 14.5312 10.4766 8.625 17.75 8.625C24.9688 8.625 30.875 14.5312 30.875 21.75C30.875 23.9375 30.3281 26.0156 29.3438 27.875ZM9 20C8.01562 20 7.25 20.8203 7.25 21.75C7.25 22.7344 8.01562 23.5 9 23.5C9.92969 23.5 10.75 22.7344 10.75 21.75C10.75 20.8203 9.92969 20 9 20ZM17.75 11.25C16.7656 11.25 16 12.0703 16 13C16 13.9844 16.7656 14.75 17.75 14.75C18.6797 14.75 19.5 13.9844 19.5 13C19.5 12.0703 18.6797 11.25 17.75 11.25ZM23.875 13.875C22.8906 13.875 22.125 14.6953 22.125 15.625C22.125 16.6094 22.8906 17.375 23.875 17.375C24.8047 17.375 25.625 16.6094 25.625 15.625C25.625 14.6953 24.8047 13.875 23.875 13.875Z" fill="#5C8EE6"></path>
  </symbol>
  <symbol fill="none" xmlns="http://www.w3.org/2000/svg" viewBox="0 0 36 36" id="time">
    <path d="M20.125 5.75H20.3438C20.6719 5.75 21 5.47656 21 5.09375V4.65625C21 4.32812 20.6719 4 20.3438 4H0.65625C0.273438 4 0 4.32812 0 4.65625V5.09375C0 5.47656 0.273438 5.75 0.65625 5.75H0.875C0.875 10.7812 3.28125 16.3594 7.92969 18C3.22656 19.6953 0.875 25.2734 0.875 30.25H0.65625C0.273438 30.25 0 30.5781 0 30.9062V31.3438C0 31.7266 0.273438 32 0.65625 32H20.3438C20.6719 32 21 31.7266 21 31.3438V30.9062C21 30.5781 20.6719 30.25 20.3438 30.25H20.125C20.125 25.2734 17.6641 19.6953 13.0156 18C17.7188 16.3594 20.125 10.7812 20.125 5.75ZM2.625 5.75H18.375C18.375 11.8203 14.8203 16.6875 10.5 16.6875C6.125 16.6875 2.625 11.8203 2.625 5.75ZM18.375 30.25H2.625C2.625 24.2344 6.125 19.3125 10.5 19.3125C14.8203 19.3125 18.375 24.2344 18.375 30.25ZM14.7109 12.0391C15.0391 11.6562 14.7109 11 14.1641 11H6.78125C6.23438 11 5.90625 11.6562 6.23438 12.0391C6.34375 12.2031 6.45312 12.3672 6.61719 12.5312C6.72656 12.6953 6.89062 12.75 7.10938 12.75H13.8359C14.0547 12.75 14.2188 12.6953 14.3281 12.5312C14.4922 12.3672 14.6016 12.2031 14.7109 12.0391ZM5.35938 26.75C5.03125 26.75 4.8125 26.9688 4.70312 27.2422C4.70312 27.4062 4.64844 27.5703 4.59375 27.7344C4.53906 28.1172 4.8125 28.5 5.25 28.5H15.6953C16.1328 28.5 16.4062 28.1172 16.3516 27.7344C16.2969 27.5703 16.2422 27.4062 16.2422 27.2422C16.1328 26.9688 15.9141 26.75 15.5859 26.75H5.35938Z" fill="#5C8EE6"></path>
  </symbol>


  <symbol fill="none" xmlns="http://www.w3.org/2000/svg" xmlns:xlink="http://www.w3.org/1999/xlink" viewBox="0 0 24 24" id="inst">
    <desc>Created with Pixso.</desc>
    <defs></defs>
    <rect id="inst" width="24.000000" height="24.000000" fill="#FFFFFF" fill-opacity="0"></rect>
    <path id="Vector" d="M8.44 4C5.99 4 4 5.99 4 8.44L4 15.55C4 18 5.99 20 8.44 20L15.55 20C18 20 20 18 20 15.55L20 8.44C20 5.99 18 4 15.55 4L8.44 4ZM8.44 5.77L15.55 5.77C17.02 5.77 18.22 6.97 18.22 8.44L18.22 15.55C18.22 17.02 17.02 18.22 15.55 18.22L8.44 18.22C6.97 18.22 5.77 17.02 5.77 15.55L5.77 8.44C5.77 6.97 6.97 5.77 8.44 5.77ZM16.44 6.66C16.2 6.66 15.98 6.76 15.81 6.92C15.64 7.09 15.55 7.31 15.55 7.55C15.55 7.79 15.64 8.01 15.81 8.18C15.98 8.35 16.2 8.44 16.44 8.44C16.68 8.44 16.9 8.35 17.07 8.18C17.23 8.01 17.33 7.79 17.33 7.55C17.33 7.31 17.23 7.09 17.07 6.92C16.9 6.76 16.68 6.66 16.44 6.66ZM12 7.55C9.54 7.55 7.55 9.54 7.55 12C7.55 14.45 9.54 16.44 12 16.44C14.45 16.44 16.44 14.45 16.44 12C16.44 9.54 14.45 7.55 12 7.55ZM12 9.33C13.47 9.33 14.66 10.52 14.66 12C14.66 13.47 13.47 14.66 12 14.66C10.52 14.66 9.33 13.47 9.33 12C9.33 10.52 10.52 9.33 12 9.33Z" fill="#5C8EE6" fill-opacity="1.000000" fill-rule="nonzero"></path>
  </symbol>
  <symbol fill="none" xmlns="http://www.w3.org/2000/svg" xmlns:xlink="http://www.w3.org/1999/xlink" viewBox="0 0 24 24" id="mail">
    <desc>Created with Pixso.</desc>
    <defs></defs>
    <rect id="mail" width="24.000000" height="24.000000" fill="#FFFFFF" fill-opacity="0"></rect>
    <path id="Vector" d="M4.31 9.96C5.03 10.53 5.93 11.21 9.12 13.53C9.75 14 10.9 15.03 12 15.03C13.12 15.03 14.25 14 14.9 13.53C18.09 11.21 19 10.53 19.71 9.96C19.84 9.87 20 9.96 20 10.12L20 16.5C20 17.34 19.34 18 18.5 18L5.5 18C4.68 18 4 17.34 4 16.5L4 10.12C4 9.96 4.18 9.87 4.31 9.96ZM12 14C11.28 14.03 10.25 13.09 9.71 12.71C5.56 9.71 5.25 9.43 4.31 8.68C4.12 8.56 4 8.34 4 8.09L4 7.5C4 6.68 4.68 6 5.5 6L18.5 6C19.34 6 20 6.68 20 7.5L20 8.09C20 8.34 19.9 8.56 19.71 8.68C18.78 9.43 18.46 9.71 14.31 12.71C13.78 13.09 12.75 14.03 12 14Z" fill="#5C8EE6" fill-opacity="1.000000" fill-rule="evenodd"></path>
  </symbol>
  <symbol fill="none" xmlns="http://www.w3.org/2000/svg" xmlns:xlink="http://www.w3.org/1999/xlink" viewBox="0 0 24 24" id="mark">
    <desc>Created with Pixso.</desc>
    <defs></defs>
    <rect id="mark" width="24.000000" height="24.000000" fill="#FFFFFF" fill-opacity="0"></rect>
    <path id="Vector" d="M12.62 19.68C12.34 20.12 11.68 20.12 11.4 19.68C6.84 13.12 6 12.43 6 10C6 6.68 8.68 4 12 4C15.34 4 18 6.68 18 10C18 12.43 17.18 13.12 12.62 19.68ZM12 12.5C13.4 12.5 14.5 11.4 14.5 10C14.5 8.62 13.4 7.5 12 7.5C10.62 7.5 9.5 8.62 9.5 10C9.5 11.4 10.62 12.5 12 12.5Z" fill="#5C8EE6" fill-opacity="1.000000" fill-rule="evenodd"></path>
  </symbol>
  <symbol fill="none" xmlns="http://www.w3.org/2000/svg" xmlns:xlink="http://www.w3.org/1999/xlink" viewBox="0 0 24 24" id="vk">
    <desc>Created with Pixso.</desc>
    <defs></defs>
    <rect id="vk" width="24.000000" height="24.000000" fill="#FFFFFF" fill-opacity="0"></rect>
    <path id="Vector" d="M21.44 16.75C20.64 15.31 18.58 13.59 17.73 12.84C17.5 12.63 17.48 12.28 17.69 12.05C19.31 10.31 20.61 8.31 21.05 7.1C21.25 6.56 20.84 6 20.27 6L18.6 6C18.05 6 17.73 6.2 17.57 6.51C16.23 9.27 15.07 10.46 14.26 11.16C13.81 11.55 13.11 11.23 13.11 10.63C13.11 9.49 13.11 8.01 13.11 6.96C13.11 6.45 12.69 6.03 12.17 6.03L9.13 6C8.75 6 8.53 6.43 8.76 6.74L9.26 7.46C9.45 7.71 9.55 8.01 9.55 8.33L9.55 11.58C9.55 12.14 8.86 12.42 8.46 12.02C7.08 10.68 5.88 7.94 5.45 6.63C5.33 6.26 4.97 6 4.57 6L2.93 6C2.31 6 1.86 6.58 2.03 7.17C3.53 12.44 6.61 17.45 12.1 17.99C12.64 18.04 13.11 17.61 13.11 17.07L13.11 15.36C13.11 14.87 13.49 14.45 13.98 14.44C14 14.44 14.02 14.44 14.04 14.44C15.49 14.44 17.11 16.55 17.68 17.54C17.85 17.82 18.15 18 18.48 18L20.69 18C21.34 18 21.75 17.31 21.44 16.75Z" fill="#5C8EE6" fill-opacity="1.000000" fill-rule="nonzero"></path>
  </symbol>

  
  <symbol fill="none" xmlns="http://www.w3.org/2000/svg" xmlns:xlink="http://www.w3.org/1999/xlink" viewBox="0 0 36 24" id="arrow-next">
    <desc>Created with Pixso.</desc>
    <defs></defs>
    <rect id="arrow" width="36.000000" height="24.000000" transform="matrix(-1 5.34378e-24 5.34378e-24 1 36 0)" fill="#FFFFFF" fill-opacity="0"></rect>
    <path id="Vector" d="M25.83 4.68L25.13 5.39L31.58 11.84L3 11.84L3 12.84L31.57 12.84L25.13 19.29L25.83 20L32.99 12.84L33 12.84L33 12.83L33.49 12.34L25.83 4.68Z" fill="#FFFFFF" fill-opacity="1.000000" fill-rule="evenodd"></path>
  </symbol>
  <symbol fill="none" xmlns="http://www.w3.org/2000/svg" xmlns:xlink="http://www.w3.org/1999/xlink" viewBox="0 0 36 24" id="arrow-prev">
    <desc>Created with Pixso.</desc>
    <defs></defs>
    <rect id="arrow" width="36.000000" height="24.000000" fill="#FFFFFF" fill-opacity="0"></rect>
    <path id="Vector" d="M10.16 4.68L10.86 5.39L4.41 11.84L33 11.84L32.99 12.84L4.42 12.84L10.86 19.29L10.16 20L3 12.84L2.99 12.84L2.99 12.83L2.5 12.34L10.16 4.68Z" fill="#FFFFFF" fill-opacity="1.000000" fill-rule="evenodd"></path>
  </symbol>



  <symbol fill="none" xmlns="http://www.w3.org/2000/svg" viewBox="0 0 180 180" id="ap">
    <path d="M30.6192 78.8496C30.6192 78.9299 30.5924 78.9888 30.5442 79.0317C30.496 79.0799 30.4318 79.1013 30.3515 79.1013H28.7933C28.7237 79.1013 28.6648 79.0745 28.6167 79.0263C28.5685 78.9781 28.531 78.9192 28.5149 78.8496L27.8349 76.0546H24.4509L23.7709 78.8496C23.7549 78.9192 23.7174 78.9781 23.6692 79.0263C23.621 79.0745 23.5621 79.1013 23.4925 79.1013H21.9344C21.8541 79.1013 21.7898 79.0799 21.7416 79.0317C21.6934 78.9888 21.6667 78.9299 21.6667 78.8496C21.6667 78.8389 21.672 78.8282 21.672 78.8229C21.6774 78.8121 21.6827 78.7961 21.6827 78.7747L24.0976 69.5437C24.1832 69.201 24.3117 68.9333 24.4777 68.7352C24.6437 68.5424 24.8258 68.3925 25.0185 68.2854C25.2059 68.1837 25.404 68.1194 25.6075 68.0873C25.8056 68.0605 25.9877 68.0445 26.1429 68.0445C26.2982 68.0445 26.4803 68.0605 26.6784 68.0873C26.8818 68.1194 27.0799 68.1837 27.2673 68.2854C27.4601 68.3925 27.6368 68.5424 27.8081 68.7352C27.9741 68.9333 28.1026 69.201 28.1883 69.5437L30.6031 78.7747C30.6031 78.7961 30.6085 78.8121 30.6085 78.8229C30.6138 78.8282 30.6192 78.8389 30.6192 78.8496ZM26.3785 70.0042C26.3571 69.9132 26.3357 69.8543 26.3036 69.8168C26.2768 69.7847 26.2232 69.7686 26.1429 69.7686C26.0626 69.7686 26.0091 69.7847 25.9823 69.8168C25.9502 69.8543 25.9288 69.9132 25.9073 70.0042L24.8472 74.3734H27.4387L26.3785 70.0042Z" fill="#828A99"></path>
    <path d="M37.9065 78.7051C37.9065 78.8121 37.8851 78.8871 37.8423 78.9246C37.7941 78.9621 37.7191 78.9942 37.612 79.0103C37.5049 79.0424 37.3497 79.0692 37.1462 79.0906C36.9481 79.1173 36.7285 79.1388 36.493 79.1602C36.2574 79.1816 36.0164 79.1923 35.7701 79.203C35.5238 79.2137 35.3043 79.2191 35.1062 79.2191C34.6296 79.2191 34.1799 79.1816 33.7676 79.1013C33.3553 79.021 32.9965 78.871 32.6967 78.6515C32.3915 78.432 32.1505 78.1214 31.9739 77.7306C31.7972 77.3397 31.7061 76.831 31.7061 76.1992V68.4568C31.7061 68.3765 31.7383 68.3068 31.7972 68.2479C31.8561 68.189 31.9257 68.1623 32.0006 68.1623H33.457C33.5373 68.1623 33.6069 68.189 33.6658 68.2479C33.7247 68.3068 33.7569 68.3765 33.7569 68.4568V76.1992C33.7569 76.6918 33.8372 77.0238 34.0032 77.2005C34.1691 77.3772 34.469 77.4682 34.9027 77.4682H37.612C37.6923 77.4682 37.7566 77.495 37.8155 77.5539C37.8744 77.6128 37.9065 77.6824 37.9065 77.7627V78.7051Z" fill="#828A99"></path>
    <path d="M41.3494 78.8068C41.3494 78.8871 41.3226 78.9514 41.2637 79.0103C41.2048 79.0692 41.1352 79.1013 41.0549 79.1013H39.5985C39.5182 79.1013 39.4539 79.0692 39.395 79.0103C39.3361 78.9514 39.304 78.8871 39.304 78.8068V68.4407C39.304 68.3657 39.3361 68.2961 39.395 68.2426C39.4539 68.189 39.5182 68.1623 39.5985 68.1623H41.0549C41.1352 68.1623 41.2048 68.189 41.2637 68.2426C41.3226 68.2961 41.3494 68.3657 41.3494 68.4407V78.8068Z" fill="#828A99"></path>
    <path d="M51.6833 78.8496C51.6833 78.9299 51.6619 78.9888 51.6137 79.0317C51.5655 79.0799 51.5013 79.1013 51.421 79.1013H49.8575C49.7932 79.1013 49.7343 79.0745 49.6862 79.0263C49.6326 78.9781 49.6005 78.9192 49.5791 78.8496L48.9044 76.0546H45.5151L44.8404 78.8496C44.819 78.9192 44.7869 78.9781 44.7387 79.0263C44.6852 79.0745 44.6263 79.1013 44.562 79.1013H42.9985C42.9236 79.1013 42.8593 79.0799 42.8058 79.0317C42.7576 78.9888 42.7362 78.9299 42.7362 78.8496C42.7362 78.8389 42.7362 78.8282 42.7415 78.8229C42.7469 78.8121 42.7469 78.7961 42.7469 78.7747L45.1617 69.5437C45.2527 69.201 45.3812 68.9333 45.5472 68.7352C45.7132 68.5424 45.8899 68.3925 46.0826 68.2854C46.2754 68.1837 46.4735 68.1194 46.6716 68.0873C46.8751 68.0605 47.0518 68.0445 47.2124 68.0445C47.3677 68.0445 47.5444 68.0605 47.7479 68.0873C47.9513 68.1194 48.1441 68.1837 48.3368 68.2854C48.5296 68.3925 48.7063 68.5424 48.8723 68.7352C49.0383 68.9333 49.1668 69.201 49.2578 69.5437L51.6726 78.7747C51.6726 78.7961 51.6726 78.8121 51.678 78.8229C51.6833 78.8282 51.6833 78.8389 51.6833 78.8496ZM47.448 70.0042C47.4266 69.9132 47.3998 69.8543 47.3731 69.8168C47.3409 69.7847 47.2874 69.7686 47.2124 69.7686C47.1321 69.7686 47.0786 69.7847 47.0464 69.8168C47.0197 69.8543 46.9929 69.9132 46.9768 70.0042L45.9167 74.3734H48.5082L47.448 70.0042Z" fill="#828A99"></path>
    <path d="M61.3426 78.5123C61.3426 78.6783 61.2891 78.8175 61.1767 78.9299C61.0589 79.0424 60.9196 79.1013 60.7537 79.1013H59.2651C59.0938 79.1013 58.9278 79.0799 58.7725 79.0317C58.6226 78.9888 58.4888 78.8336 58.371 78.5712L55.0994 71.4017C55.062 71.3214 55.0191 71.2839 54.9709 71.2839C54.9174 71.2839 54.896 71.3214 54.896 71.4017V78.8068C54.896 78.8871 54.8692 78.9514 54.8157 79.0103C54.7621 79.0692 54.6925 79.1013 54.6175 79.1013H53.3646C53.2843 79.1013 53.2147 79.0692 53.1558 79.0103C53.0969 78.9514 53.0701 78.8871 53.0701 78.8068V68.7513C53.0701 68.5853 53.1237 68.4461 53.2415 68.3336C53.3539 68.2212 53.4931 68.1623 53.6591 68.1623H55.2494C55.4046 68.1623 55.5331 68.189 55.6242 68.2479C55.7152 68.3068 55.8062 68.4354 55.8972 68.6335L59.324 76.1992C59.3562 76.2795 59.3937 76.317 59.4418 76.317C59.4954 76.317 59.5168 76.2742 59.5168 76.1831V68.4407C59.5168 68.2533 59.6132 68.1623 59.7952 68.1623H61.0642C61.2516 68.1623 61.3426 68.2533 61.3426 68.4407V78.5123Z" fill="#828A99"></path>
    <path d="M70.0596 78.6462C70.0596 78.7533 70.0275 78.8282 69.9686 78.871C69.9097 78.9192 69.8347 78.9514 69.733 78.9835C69.6741 79.0049 69.5777 79.0263 69.4331 79.0477C69.2885 79.0745 69.1172 79.0959 68.9084 79.1227C68.7049 79.1495 68.4747 79.1709 68.2177 79.187C67.966 79.2084 67.6929 79.2191 67.4092 79.2191C66.9701 79.2191 66.4989 79.1548 66.0117 79.0263C65.5191 78.8978 65.0746 78.6676 64.6677 78.3303C64.2608 77.9876 63.9288 77.5324 63.6611 76.9488C63.3934 76.3705 63.2595 75.6263 63.2595 74.716V72.5475C63.2595 71.6266 63.3934 70.8716 63.6611 70.288C63.9288 69.7043 64.2608 69.2439 64.6677 68.9119C65.0746 68.5799 65.5191 68.3497 66.0117 68.2265C66.4989 68.1034 66.9701 68.0445 67.4092 68.0445C67.6929 68.0445 67.966 68.0552 68.2177 68.0713C68.4747 68.0927 68.7049 68.1141 68.9084 68.1409C69.1172 68.1623 69.2885 68.189 69.4331 68.2212C69.5777 68.2479 69.6741 68.2694 69.733 68.2801C69.8347 68.3068 69.9097 68.3443 69.9686 68.3925C70.0275 68.4353 70.0596 68.5103 70.0596 68.6174V69.6026C70.0596 69.6936 70.0382 69.7686 69.9953 69.8275C69.9471 69.8864 69.8722 69.9132 69.7651 69.9132H69.733C69.6098 69.9025 69.4545 69.8917 69.2725 69.8757C69.0904 69.865 68.8977 69.8489 68.6889 69.8382C68.4854 69.8328 68.2712 69.8221 68.057 69.8114C67.8429 69.8007 67.634 69.7954 67.4359 69.7954C67.1254 69.7954 66.8362 69.8436 66.5792 69.9346C66.3169 70.031 66.092 70.1809 65.9099 70.3951C65.7225 70.6039 65.5726 70.8877 65.4655 71.241C65.3584 71.5944 65.3049 72.0281 65.3049 72.5475V74.716C65.3049 75.2247 65.3584 75.6531 65.4655 76.0065C65.5726 76.3598 65.7225 76.649 65.9099 76.8632C66.092 77.0773 66.3169 77.2326 66.5792 77.329C66.8362 77.42 67.1254 77.4682 67.4359 77.4682C67.634 77.4682 67.8429 77.4628 68.057 77.4521C68.2712 77.4414 68.4854 77.4307 68.6889 77.42C68.8977 77.4147 69.0904 77.3986 69.2725 77.3879C69.4545 77.3718 69.6098 77.3611 69.733 77.3504H69.7651C69.8722 77.3504 69.9471 77.3772 69.9953 77.4361C70.0382 77.495 70.0596 77.5699 70.0596 77.6556V78.6462Z" fill="#828A99"></path>
    <path d="M78.3482 78.7051C78.3482 78.8121 78.3267 78.8871 78.2839 78.9246C78.2357 78.9621 78.1608 78.9942 78.0537 79.0103C77.9359 79.0317 77.8074 79.0531 77.6628 79.0799C77.5182 79.1013 77.3415 79.1227 77.1327 79.1441C76.9239 79.1655 76.6669 79.1816 76.367 79.1977C76.0672 79.2137 75.6977 79.2191 75.2533 79.2191C74.7768 79.2191 74.327 79.1816 73.9147 79.1013C73.5024 79.021 73.1384 78.871 72.8331 78.6515C72.528 78.432 72.287 78.1214 72.1103 77.7306C71.9283 77.3397 71.8426 76.831 71.8426 76.1992V71.0644C71.8426 70.4325 71.9283 69.9239 72.1103 69.533C72.287 69.1368 72.528 68.8316 72.8331 68.612C73.1384 68.3925 73.5024 68.2426 73.9147 68.1623C74.327 68.082 74.7768 68.0445 75.2533 68.0445C75.6977 68.0445 76.0672 68.0498 76.367 68.0659C76.6669 68.082 76.9239 68.098 77.1327 68.1194C77.3415 68.1355 77.5182 68.1623 77.6628 68.1837C77.8074 68.2105 77.9359 68.2319 78.0537 68.2479C78.1608 68.2694 78.2357 68.3015 78.2839 68.339C78.3267 68.3765 78.3482 68.4514 78.3482 68.5585V69.5009C78.3482 69.5812 78.316 69.6508 78.2571 69.7097C78.1982 69.7686 78.134 69.7954 78.0537 69.7954H75.0499C74.6162 69.7954 74.3163 69.8864 74.145 70.0631C73.9736 70.2398 73.888 70.5717 73.888 71.0644V72.6546H77.877C77.9573 72.6546 78.0215 72.6814 78.0804 72.7403C78.1393 72.7992 78.1715 72.8688 78.1715 72.9491V74.0093C78.1715 74.0842 78.1393 74.1538 78.0804 74.2127C78.0215 74.2716 77.9573 74.3038 77.877 74.3038H73.888V76.1992C73.888 76.6918 73.9736 77.0238 74.145 77.2005C74.3163 77.3772 74.6162 77.4682 75.0499 77.4682H78.0537C78.134 77.4682 78.1982 77.495 78.2571 77.5539C78.316 77.6128 78.3482 77.6824 78.3482 77.7627V78.7051Z" fill="#828A99"></path>
    <path d="M27.1388 84.0166C27.1388 84.4289 27.0639 84.7769 26.9193 85.0554C26.7694 85.3391 26.5713 85.564 26.325 85.7407C26.0733 85.9121 25.7895 86.0299 25.4629 86.1048C25.1363 86.1744 24.7936 86.2119 24.4295 86.2119C24.301 86.2119 24.1565 86.2066 23.9958 86.1958C23.8298 86.1905 23.696 86.1798 23.5889 86.1744V88.6267C23.5889 88.6749 23.5728 88.7178 23.5407 88.7552C23.5032 88.7927 23.4604 88.8141 23.4122 88.8141H22.4752C22.4216 88.8141 22.3788 88.7927 22.3413 88.7552C22.3038 88.7178 22.2824 88.6749 22.2824 88.6267V82.164C22.2824 82.073 22.3092 82.0034 22.3627 81.9659C22.4163 81.923 22.4912 81.8963 22.5876 81.8856C22.8286 81.8481 23.1123 81.816 23.4336 81.7945C23.7549 81.7731 24.0868 81.7624 24.4295 81.7624C24.7936 81.7624 25.1363 81.7945 25.4629 81.8641C25.7895 81.9338 26.0787 82.0515 26.325 82.2229C26.5713 82.3889 26.7694 82.6138 26.9193 82.8922C27.0639 83.1706 27.1388 83.5186 27.1388 83.9309V84.0166ZM25.8324 83.9256C25.8324 83.5294 25.7146 83.2509 25.479 83.0849C25.2487 82.9136 24.8954 82.8333 24.4242 82.8333C24.376 82.8333 24.3117 82.8333 24.2314 82.8386C24.1565 82.8386 24.0761 82.844 23.9958 82.8494C23.9101 82.8494 23.8352 82.8547 23.7656 82.8547C23.6906 82.8601 23.6317 82.8654 23.5889 82.8708V85.1143C23.6264 85.1143 23.6853 85.1143 23.7656 85.1196C23.8405 85.1196 23.9209 85.125 24.0065 85.1303C24.0922 85.1303 24.1725 85.1357 24.2528 85.1357C24.3278 85.141 24.3867 85.141 24.4242 85.141C24.9328 85.141 25.2916 85.05 25.5111 84.8573C25.7253 84.6698 25.8324 84.3861 25.8324 84.0113V83.9256Z" fill="#828A99"></path>
    <path d="M33.2321 88.7017C33.2321 88.7767 33.1947 88.8141 33.1197 88.8141H31.9739C31.9257 88.8141 31.8828 88.7927 31.8614 88.7552C31.8346 88.7178 31.8079 88.6749 31.7864 88.6267L30.4318 86.1262H30.3033C30.1748 86.1262 30.0356 86.1209 29.8696 86.1155C29.7089 86.1048 29.5751 86.0941 29.468 86.0888V88.6267C29.468 88.6749 29.4466 88.7178 29.4145 88.7552C29.3823 88.7927 29.3395 88.8141 29.286 88.8141H28.3489C28.3007 88.8141 28.2579 88.7927 28.2204 88.7552C28.1829 88.7178 28.1615 88.6749 28.1615 88.6267V82.164C28.1615 82.073 28.1883 82.0034 28.2418 81.9659C28.2954 81.923 28.3704 81.8963 28.4614 81.8856C28.7077 81.8481 28.9915 81.816 29.3074 81.7945C29.6286 81.7731 29.9606 81.7624 30.3086 81.7624C30.6674 81.7624 31.0154 81.7999 31.342 81.8695C31.6687 81.9445 31.9524 82.0623 32.1987 82.2229C32.4504 82.3835 32.6485 82.6031 32.7931 82.8761C32.943 83.1492 33.0126 83.4812 33.0126 83.8828V83.9684C33.0126 84.4717 32.9002 84.8733 32.6699 85.1892C32.4397 85.4998 32.1291 85.7354 31.7383 85.8853L33.2107 88.6267C33.2268 88.6428 33.2321 88.6696 33.2321 88.7017ZM31.7115 83.8828C31.7115 83.5294 31.5937 83.2724 31.3581 83.1171C31.1225 82.9564 30.7691 82.8815 30.3033 82.8815C30.2497 82.8815 30.1855 82.8815 30.1105 82.8868C30.0302 82.8868 29.9499 82.8922 29.8696 82.8922C29.7893 82.8975 29.7143 82.8975 29.6393 82.9029C29.5697 82.9082 29.5108 82.9136 29.468 82.919V85.0286C29.5055 85.0286 29.5644 85.0286 29.6393 85.0339C29.7197 85.0393 29.8 85.0393 29.8856 85.0446C29.9713 85.0446 30.0516 85.05 30.1266 85.0554C30.2069 85.0554 30.2658 85.0554 30.3033 85.0554C30.7905 85.0554 31.1493 84.9804 31.3742 84.8251C31.599 84.6645 31.7115 84.3807 31.7115 83.9684V83.8828Z" fill="#828A99"></path>
    <path d="M39.2558 85.9603C39.2558 86.4796 39.1916 86.924 39.0577 87.2935C38.9185 87.6629 38.7364 87.9628 38.5008 88.1984C38.2599 88.434 37.9815 88.6053 37.6549 88.7178C37.3282 88.8302 36.9748 88.8891 36.584 88.8891C36.1985 88.8891 35.8451 88.8302 35.5185 88.7178C35.1918 88.6053 34.9134 88.434 34.6725 88.1984C34.4369 87.9628 34.2548 87.6629 34.1156 87.2935C33.9817 86.924 33.9175 86.4796 33.9175 85.9603V84.6913C33.9175 84.1772 33.9817 83.7328 34.1156 83.3634C34.2548 82.9886 34.4369 82.6887 34.6725 82.4531C34.9134 82.2175 35.1918 82.0462 35.5185 81.9338C35.8451 81.8213 36.1985 81.7624 36.584 81.7624C36.9748 81.7624 37.3282 81.8213 37.6549 81.9338C37.9815 82.0462 38.2599 82.2175 38.5008 82.4531C38.7364 82.6887 38.9185 82.9886 39.0577 83.3634C39.1916 83.7328 39.2558 84.1772 39.2558 84.6913V85.9603ZM37.9547 84.6913C37.9547 84.0648 37.8423 83.6097 37.6174 83.3259C37.3978 83.0421 37.0498 82.8975 36.584 82.8975C36.1235 82.8975 35.7755 83.0421 35.5559 83.3259C35.331 83.6097 35.2186 84.0648 35.2186 84.6913V85.9603C35.2186 86.5867 35.331 87.0418 35.5559 87.3256C35.7755 87.6094 36.1235 87.754 36.584 87.754C37.0498 87.754 37.3978 87.6094 37.6174 87.3256C37.8423 87.0418 37.9547 86.5867 37.9547 85.9603V84.6913Z" fill="#828A99"></path>
    <path d="M45.5365 86.0138C45.5365 86.9455 45.2848 87.6576 44.7708 88.1502C44.2622 88.6428 43.534 88.8891 42.5862 88.8891C42.4149 88.8891 42.2382 88.8837 42.0508 88.8784C41.8688 88.873 41.6867 88.8623 41.5154 88.8516C41.344 88.8356 41.1887 88.8249 41.0495 88.8141C40.905 88.7981 40.7979 88.7874 40.7336 88.7767C40.648 88.7606 40.5891 88.7338 40.5462 88.691C40.5087 88.6481 40.4873 88.5785 40.4873 88.4822V82.164C40.4873 82.073 40.5087 82.0034 40.5462 81.9605C40.5891 81.9177 40.648 81.8856 40.7336 81.8749C40.7979 81.8641 40.905 81.8481 41.0495 81.8374C41.1887 81.8267 41.344 81.8106 41.5154 81.7999C41.6867 81.7892 41.8688 81.7785 42.0508 81.7731C42.2382 81.7678 42.4149 81.7624 42.5862 81.7624C43.534 81.7624 44.2622 82.0087 44.7708 82.5013C45.2848 82.9886 45.5365 83.7007 45.5365 84.6377V86.0138ZM44.2354 84.6377C44.2354 84.2897 44.1926 83.9952 44.1069 83.7703C44.0212 83.5401 43.9034 83.358 43.7589 83.2242C43.6089 83.0903 43.4376 82.9939 43.2341 82.9404C43.0307 82.8868 42.8111 82.8601 42.5809 82.8601C42.4042 82.8601 42.2543 82.8654 42.1311 82.8708C42.0026 82.8761 41.8902 82.8815 41.7938 82.8868V87.77C41.8902 87.7754 42.0026 87.7807 42.1311 87.7915C42.2543 87.7968 42.4042 87.7968 42.5809 87.7968C42.8111 87.7968 43.0307 87.77 43.2341 87.7165C43.4376 87.6683 43.6089 87.5719 43.7589 87.4381C43.9034 87.2988 44.0212 87.1221 44.1069 86.8919C44.1926 86.6617 44.2354 86.3725 44.2354 86.0191V84.6377Z" fill="#828A99"></path>
    <path d="M51.8654 86.2333C51.8654 86.7313 51.8011 87.1489 51.6726 87.4862C51.5441 87.8289 51.3674 88.0966 51.1372 88.3055C50.9069 88.5143 50.6339 88.6589 50.318 88.7499C50.0021 88.8409 49.6594 88.8891 49.2846 88.8891C48.9098 88.8891 48.5617 88.8409 48.2458 88.7499C47.9299 88.6589 47.6568 88.5143 47.4266 88.3055C47.2017 88.0966 47.025 87.8289 46.8965 87.4862C46.768 87.1489 46.7038 86.7313 46.7038 86.2333V82.0141C46.7038 81.9659 46.7198 81.923 46.7573 81.8909C46.7948 81.8534 46.8376 81.8374 46.8912 81.8374H47.8175C47.871 81.8374 47.9139 81.8534 47.9513 81.8909C47.9888 81.923 48.0049 81.9659 48.0049 82.0141V86.2387C48.0049 86.5064 48.0263 86.742 48.0638 86.9401C48.1013 87.1329 48.1655 87.2989 48.2672 87.4327C48.3636 87.5666 48.4921 87.6629 48.6528 87.7218C48.8187 87.7861 49.0276 87.8182 49.2846 87.8182C49.5309 87.8182 49.7397 87.7861 49.9057 87.7218C50.0717 87.6629 50.2055 87.5666 50.3019 87.4327C50.3983 87.2989 50.4679 87.1329 50.5054 86.9401C50.5429 86.742 50.5589 86.5064 50.5589 86.2387V82.0141C50.5589 81.9659 50.5803 81.923 50.6178 81.8909C50.6553 81.8534 50.6981 81.8374 50.7463 81.8374H51.678C51.7262 81.8374 51.769 81.8534 51.8065 81.8909C51.844 81.923 51.8654 81.9659 51.8654 82.0141V86.2333Z" fill="#828A99"></path>
    <path d="M57.375 88.5196C57.375 88.5893 57.359 88.6374 57.3215 88.6696C57.284 88.6963 57.2305 88.7178 57.1662 88.7392C57.1287 88.7499 57.0645 88.7659 56.9788 88.782C56.8878 88.7981 56.7754 88.8088 56.6415 88.8248C56.513 88.8409 56.3631 88.857 56.2024 88.8677C56.0418 88.8837 55.8651 88.8891 55.6831 88.8891C55.4046 88.8891 55.1048 88.8463 54.7942 88.7659C54.4783 88.6856 54.1945 88.5357 53.9375 88.3215C53.6805 88.102 53.4663 87.8129 53.295 87.4434C53.1237 87.074 53.038 86.5974 53.038 86.0138V84.6377C53.038 84.0487 53.1237 83.5668 53.295 83.192C53.4663 82.8226 53.6805 82.5281 53.9375 82.3139C54.1945 82.1051 54.4783 81.9605 54.7942 81.8802C55.1048 81.7999 55.4046 81.7624 55.6831 81.7624C55.8651 81.7624 56.0418 81.7678 56.2024 81.7838C56.3631 81.7945 56.513 81.8106 56.6415 81.8213C56.7754 81.8374 56.8878 81.8588 56.9788 81.8749C57.0645 81.8963 57.1287 81.907 57.1662 81.9123C57.2305 81.9338 57.284 81.9552 57.3215 81.9819C57.359 82.0087 57.375 82.0623 57.375 82.1265V82.7583C57.375 82.8119 57.359 82.8601 57.3322 82.8975C57.3054 82.935 57.2573 82.9564 57.1876 82.9564H57.1662C57.0859 82.9511 56.9895 82.9404 56.8717 82.9297C56.7593 82.9243 56.6361 82.9136 56.5023 82.9083C56.3684 82.9029 56.2346 82.8975 56.1007 82.8868C55.9615 82.8815 55.8276 82.8815 55.7045 82.8815C55.5064 82.8815 55.319 82.9083 55.153 82.9672C54.987 83.0261 54.8478 83.1278 54.73 83.2616C54.6068 83.3955 54.5158 83.5722 54.4462 83.7971C54.3766 84.0273 54.3445 84.3057 54.3445 84.6377V86.0138C54.3445 86.3404 54.3766 86.6135 54.4462 86.8437C54.5158 87.0686 54.6068 87.2507 54.73 87.3845C54.8478 87.5237 54.987 87.6201 55.153 87.679C55.319 87.7433 55.5064 87.77 55.7045 87.77C55.8276 87.77 55.9615 87.7647 56.1007 87.7593C56.2346 87.754 56.3684 87.7486 56.5023 87.7433C56.6361 87.7379 56.7593 87.7272 56.8717 87.7165C56.9895 87.7111 57.0859 87.7004 57.1662 87.6951H57.1876C57.2573 87.6951 57.3054 87.7165 57.3322 87.754C57.359 87.7914 57.375 87.8343 57.375 87.8932V88.5196Z" fill="#828A99"></path>
    <path d="M63.0079 82.7583C63.0079 82.8065 62.9864 82.8494 62.949 82.8815C62.9115 82.9136 62.8686 82.9243 62.8205 82.9243H61.1767V88.6267C61.1767 88.6749 61.1606 88.7178 61.1231 88.7552C61.0856 88.7927 61.0374 88.8141 60.9893 88.8141H60.0576C60.0094 88.8141 59.9666 88.7927 59.9291 88.7552C59.8916 88.7178 59.8702 88.6749 59.8702 88.6267V82.9243H58.2317C58.1782 82.9243 58.1354 82.9136 58.0979 82.8815C58.0604 82.8494 58.0443 82.8065 58.0443 82.7583V82.0141C58.0443 81.9659 58.0604 81.923 58.0979 81.8909C58.1354 81.8534 58.1782 81.8374 58.2317 81.8374H62.8205C62.8686 81.8374 62.9115 81.8534 62.949 81.8909C62.9864 81.923 63.0079 81.9659 63.0079 82.0141V82.7583Z" fill="#828A99"></path>
    <path d="M65.2513 88.6267C65.2513 88.6749 65.2299 88.7178 65.1924 88.7552C65.155 88.7927 65.1121 88.8141 65.0639 88.8141H64.1323C64.0841 88.8141 64.0413 88.7927 64.0038 88.7552C63.9663 88.7178 63.9449 88.6749 63.9449 88.6267V82.0141C63.9449 81.9659 63.9663 81.923 64.0038 81.8909C64.0413 81.8534 64.0841 81.8374 64.1323 81.8374H65.0639C65.1121 81.8374 65.155 81.8534 65.1924 81.8909C65.2299 81.923 65.2513 81.9659 65.2513 82.0141V88.6267Z" fill="#828A99"></path>
    <path d="M71.8105 85.9603C71.8105 86.4796 71.7462 86.924 71.6124 87.2935C71.4785 87.6629 71.2911 87.9628 71.0555 88.1984C70.8145 88.434 70.5361 88.6053 70.2095 88.7178C69.8829 88.8302 69.5295 88.8891 69.144 88.8891C68.7531 88.8891 68.3997 88.8302 68.0731 88.7178C67.7518 88.6053 67.4681 88.434 67.2325 88.1984C66.9915 87.9628 66.8095 87.6629 66.6756 87.2935C66.5417 86.924 66.4721 86.4796 66.4721 85.9603V84.6913C66.4721 84.1772 66.5417 83.7328 66.6756 83.3634C66.8095 82.9886 66.9915 82.6887 67.2325 82.4531C67.4681 82.2175 67.7518 82.0462 68.0731 81.9338C68.3997 81.8213 68.7531 81.7624 69.144 81.7624C69.5295 81.7624 69.8829 81.8213 70.2095 81.9338C70.5361 82.0462 70.8145 82.2175 71.0555 82.4531C71.2911 82.6887 71.4785 82.9886 71.6124 83.3634C71.7462 83.7328 71.8105 84.1772 71.8105 84.6913V85.9603ZM70.5093 84.6913C70.5093 84.0648 70.3969 83.6097 70.172 83.3259C69.9525 83.0421 69.6045 82.8975 69.144 82.8975C68.6781 82.8975 68.3355 83.0421 68.1106 83.3259C67.8857 83.6097 67.7786 84.0648 67.7786 84.6913V85.9603C67.7786 86.5867 67.8857 87.0418 68.1106 87.3256C68.3355 87.6094 68.6781 87.754 69.144 87.754C69.6045 87.754 69.9525 87.6094 70.172 87.3256C70.3969 87.0418 70.5093 86.5867 70.5093 85.9603V84.6913Z" fill="#828A99"></path>
    <path d="M78.316 88.4393C78.316 88.5411 78.2839 88.6321 78.2089 88.707C78.1393 88.7766 78.0483 88.8141 77.9412 88.8141H76.9935C76.8811 88.8141 76.7793 88.7981 76.683 88.7713C76.5812 88.7445 76.4955 88.6428 76.4206 88.4768L74.3377 83.9042C74.311 83.8506 74.2842 83.8292 74.2521 83.8292C74.2199 83.8292 74.2092 83.8506 74.2092 83.9042V88.6267C74.2092 88.6749 74.1878 88.7178 74.1557 88.7552C74.1182 88.7927 74.0807 88.8141 74.0272 88.8141H73.2294C73.1812 88.8141 73.1384 88.7927 73.1009 88.7552C73.0634 88.7178 73.042 88.6749 73.042 88.6267V82.2122C73.042 82.1051 73.0794 82.0194 73.1491 81.9445C73.224 81.8749 73.3097 81.8374 73.4168 81.8374H74.4341C74.5305 81.8374 74.6108 81.8588 74.6697 81.8963C74.7286 81.9338 74.7875 82.0141 74.8464 82.1372L77.031 86.9615C77.0524 87.0151 77.0738 87.0365 77.1059 87.0365C77.1381 87.0365 77.1541 87.0097 77.1541 86.9562V82.0141C77.1541 81.8963 77.213 81.8374 77.3308 81.8374H78.1393C78.2571 81.8374 78.316 81.8963 78.316 82.0141V88.4393Z" fill="#828A99"></path>
    <path fill-rule="evenodd" clip-rule="evenodd" d="M49.9699 16.5996C52.54 16.5996 54.9923 17.1029 57.2305 18.0185V35.5648C57.2305 39.5431 54.0071 42.7664 50.0288 42.7664C48.3368 42.7664 46.7841 42.1828 45.5526 41.2083V47.5854C46.9447 48.1048 48.4546 48.3885 50.0288 48.3885C57.8516 48.3885 62.8794 42.2096 62.8794 34.7188V14.763C59.1259 12.4499 54.7032 11.1113 49.9699 11.1113C36.3537 11.1113 25.3184 22.1467 25.3184 35.7629C25.3184 43.5375 28.9165 50.4714 34.5386 54.9905V47.1356C32.1934 43.9551 30.8012 40.0196 30.8012 35.7629C30.8012 25.1773 39.3843 16.5996 49.9699 16.5996Z" fill="#828A99"></path>
    <path class="img-ag" fill-rule="evenodd" clip-rule="evenodd" d="M50.0449 54.9423C47.4748 54.9423 45.0225 54.439 42.7844 53.518V35.9717C42.7844 31.9988 46.0077 28.7701 49.986 28.7701C51.678 28.7701 53.2308 29.3537 54.4623 30.3336V23.9565C53.0701 23.4371 51.5602 23.1533 49.986 23.1533C42.1632 23.1533 37.1301 29.3269 37.1301 36.8231V56.7789C40.8889 59.092 45.3116 60.4305 50.0449 60.4305C63.6611 60.4305 74.6965 49.3898 74.6965 35.779C74.6965 28.0044 71.0983 21.0705 65.4709 16.5514V24.4063C67.8214 27.5868 69.2082 31.5222 69.2082 35.779C69.2082 46.3646 60.6305 54.9423 50.0449 54.9423Z" fill="#828A99"></path>
  </symbol>
  <symbol fill="none" xmlns="http://www.w3.org/2000/svg" viewBox="0 0 180 180" id="ag">
    <path d="M65.5713 31.3417H58.0292L56.1122 28.262L52.404 22.5111L43.6049 36.1812L39.5511 42.5291L36.2514 47.6829L32.1975 53.9993L28.8664 59.1531L24.8126 65.501H17.3019L21.3558 59.1531L24.6554 53.9993L28.7093 47.6829L32.009 42.5291L48.633 16.666H56.1751L59.8519 22.4169L63.6229 28.262L65.5713 31.3417Z" fill="#828A99"></path>
    <path d="M87.5062 65.501H31.789L36.2828 59.1531L39.5825 53.9994L43.6364 47.6829L46.9675 42.5291L51.0213 36.1812H68.7138L72.7677 42.5291H54.4781L51.1785 47.6829L47.1246 53.9994L43.8249 59.1531H75.9102L72.6106 53.9994H53.6611L57.8721 47.6829H76.0673L80.1526 53.9994L83.4523 59.1531L87.5062 65.501Z" fill="#828A99"></path>
    <path d="M22.1414 83.3821L21.2301 81.748H16.2334L17.459 79.4539H20.0359L18.2132 76.0285L14.2851 83.3821H11.1111L16.5791 73.4831C16.862 72.9488 17.3019 72.6974 17.8676 72.6974H18.5275C19.0617 72.6974 19.5017 72.9488 19.7845 73.4831L25.2525 83.3821H22.1414Z" fill="#828A99"></path>
    <path d="M30.5006 83.3821C29.6835 83.3821 28.9293 83.2564 28.2379 83.005C27.5466 82.7536 26.9495 82.3765 26.4467 81.9051C25.9439 81.4651 25.5354 80.8995 25.2525 80.2395C24.9697 79.5796 24.844 78.8568 24.844 78.0398C24.844 77.2541 24.9697 76.4999 25.2525 75.8714C25.5354 75.2115 25.9439 74.6458 26.4467 74.1744C26.9495 73.7031 27.5466 73.326 28.2379 73.0746C28.9293 72.8232 29.6835 72.6974 30.5006 72.6974H36.22V75.4315H30.312C29.9349 75.4315 29.5892 75.4943 29.275 75.62C28.9293 75.7457 28.6779 75.9343 28.4265 76.1542C28.2065 76.4056 28.018 76.657 27.8923 77.0027C27.7666 77.317 27.7037 77.6627 27.7037 78.0398C27.7037 78.4169 27.7666 78.7625 27.8923 79.1082C28.018 79.4225 28.2065 79.6739 28.4265 79.8939C28.6779 80.1453 28.9293 80.3024 29.275 80.4281C29.5892 80.5538 29.9349 80.6166 30.312 80.6166H33.486V79.1711H30.0292V76.877H36.22V83.3821H30.5006Z" fill="#828A99"></path>
    <path d="M45.8361 83.3821V75.4315H41.8765V72.6974H52.624V75.4315H48.6959V83.3821H45.8361Z" fill="#828A99"></path>
    <path d="M57.7149 79.1711V76.877H64.0314V79.1711H57.7149ZM53.881 83.3821V72.6974H64.1257V75.4315H56.7407V80.6166H64.1571V83.3821H53.881Z" fill="#828A99"></path>
    <path d="M71.165 83.3821C70.3165 83.3821 69.5623 83.2564 68.8709 83.005C68.1796 82.7536 67.5825 82.3765 67.1111 81.9051C66.6083 81.4651 66.1998 80.8995 65.917 80.2395C65.6341 79.5796 65.477 78.8568 65.477 78.0398C65.477 77.2541 65.6341 76.4999 65.917 75.8714C66.1998 75.2115 66.6083 74.6458 67.1111 74.1744C67.5825 73.7031 68.1796 73.326 68.8709 73.0746C69.5623 72.8232 70.3165 72.6974 71.165 72.6974H76.3816V75.4315H70.945C70.5679 75.4315 70.2222 75.4943 69.908 75.62C69.5937 75.7457 69.3109 75.9343 69.0909 76.1542C68.8709 76.4056 68.6824 76.657 68.5567 77.0027C68.431 77.317 68.3681 77.6627 68.3681 78.0398C68.3681 78.4169 68.431 78.7625 68.5567 79.1082C68.6824 79.4225 68.8709 79.6739 69.0909 79.8939C69.3109 80.1453 69.5937 80.3024 69.908 80.4281C70.2222 80.5538 70.5679 80.6166 70.945 80.6166H76.3816V83.3821H71.165Z" fill="#828A99"></path>
    <path d="M86.0292 83.3821V79.2339H81.8496V76.6256H86.0292V72.6974H88.8889V83.3821H86.0292ZM77.9843 83.3821V72.6974H80.8754V83.3821H77.9843Z" fill="#828A99"></path>
  </symbol>





  
  <symbol fill="none" xmlns="http://www.w3.org/2000/svg" viewBox="0 0 30 30" id="more">
    <path d="M15 14C14.1562 14 13.5 14.7031 13.5 15.5C13.5 16.3438 14.1562 17 15 17C15.7969 17 16.5 16.3438 16.5 15.5C16.5 14.7031 15.7969 14 15 14ZM7.5 14C6.65625 14 6 14.7031 6 15.5C6 16.3438 6.65625 17 7.5 17C8.29688 17 9 16.3438 9 15.5C9 14.7031 8.29688 14 7.5 14ZM22.5 14C21.6562 14 21 14.7031 21 15.5C21 16.3438 21.6562 17 22.5 17C23.2969 17 24 16.3438 24 15.5C24 14.7031 23.2969 14 22.5 14Z" fill="#5C8EE6"></path>
  </symbol>
  <symbol fill="none" xmlns="http://www.w3.org/2000/svg" viewBox="0 0 30 30" id="bricks">
    <path d="M24.5 4H6.5C5.65625 4 5 4.70312 5 5.5V8.5C5 9.34375 5.65625 10 6.5 10V24.25C6.5 24.625 6.73438 24.9531 7.10938 25C7.57812 25.0938 8 24.7188 8 24.25V22H18.5V24.25C18.5 24.6719 18.8281 25 19.2031 25C19.5781 25 20 24.6719 20 24.25V22H23V24.25C23 24.625 23.2344 24.9531 23.6094 25C24.0781 25.0938 24.5 24.7188 24.5 24.25V10C25.2969 10 26 9.34375 26 8.5V5.5C26 4.70312 25.2969 4 24.5 4ZM11 14.5H8V10H11V14.5ZM8 20.5V16H14V20.5H8ZM23 20.5H15.5V16H23V20.5ZM23 14.5H12.5V10H23V14.5ZM24.5 8.5H6.5V5.5H24.5V8.5Z" fill="#5C8EE6"></path>
  </symbol>
  <symbol fill="none" xmlns="http://www.w3.org/2000/svg" viewBox="0 0 30 30" id="boots">
    <path d="M15.7969 15.75C14.1562 15.75 12.2344 16.4062 10.875 17.3906C9.75 18.1875 8.8125 18.9844 6 18.9844H3C1.3125 18.9844 0 20.4375 0 22.2188C0 23.9531 1.3125 25.5 3 25.5H6L8.67188 26.2031C10.1719 26.6719 11.7188 27 13.7344 27C18.8906 27 24 24.4219 24 20.5781C24 17.3906 20.0156 15.75 15.7969 15.75ZM5.25 24H3C2.20312 24 1.5 23.1562 1.5 22.2188C1.5 21.2344 2.15625 20.4844 3 20.4844H5.25V24ZM9.04688 24.75L6.75 24.1875V20.4375C9.32812 20.2969 10.5 19.5 11.5781 18.75C15.8438 15.7031 22.5 17.8594 22.5 20.5781C22.5 23.4844 16.7812 27.0469 9.04688 24.75ZM19.7344 3C17.6719 3 16.1719 3.375 14.6719 3.84375L12 4.5H9C7.3125 4.5 6 6.04688 6 7.82812C6 9.65625 7.3125 11.0625 9 11.0625H12C14.8125 11.0625 15.75 11.8594 16.875 12.6562C18.2344 13.5938 20.1562 14.25 21.7969 14.25C26.0156 14.25 30 12.6562 30 9.46875C30 5.625 24.9844 3 19.7344 3ZM11.25 9.5625H9C8.15625 9.5625 7.5 8.8125 7.5 7.82812C7.5 6.89062 8.20312 6 9 6H11.25V9.5625ZM21.7969 12.75C20.4844 12.75 18.8906 12.1875 17.7656 11.3906C16.6406 10.6406 15.4688 9.75 12.75 9.5625V5.85938L15.0938 5.25C16.5 4.875 17.8594 4.5 19.7344 4.5C22.1719 4.5 28.5 5.71875 28.5 9.46875C28.5 11.625 25.125 12.75 21.7969 12.75Z" fill="#5C8EE6"></path>
  </symbol>
  <symbol fill="none" xmlns="http://www.w3.org/2000/svg" viewBox="0 0 30 30" id="shirt">
    <path d="M29.8813 8.54898C29.6938 7.98648 29.3188 7.56461 28.8032 7.28336L20.5063 3.06461C20.1782 2.92398 19.8032 3.01773 19.5688 3.29898C18.8188 4.37711 16.9438 5.08023 14.9751 5.08023C13.0532 5.08023 11.1782 4.37711 10.4282 3.29898C10.1938 3.01773 9.81882 2.92398 9.4907 3.06461L1.19382 7.28336C0.678196 7.56461 0.303196 7.98648 0.115696 8.54898C-0.0718041 9.11148 -0.0249291 9.67398 0.209446 10.1896L2.50632 14.924C3.02195 15.9552 4.33445 16.3771 5.3657 15.9084L7.52195 14.9709V24.8146C7.52195 26.0334 8.45945 26.9709 9.6782 26.9709H20.3188C21.5376 26.9709 22.5219 26.0334 22.5219 24.8146L22.4751 14.9709L24.5844 15.8615C25.6626 16.3771 26.9751 15.9552 27.4907 14.8771L29.7876 10.1896C30.0219 9.67398 30.0688 9.11148 29.8813 8.54898ZM28.4282 9.53336L26.1782 14.2209C25.9907 14.549 25.5688 14.6896 25.2407 14.5021L22.0532 13.1427C21.8188 13.049 21.5376 13.0959 21.3501 13.2365C21.1157 13.3771 20.9751 13.6115 20.9751 13.8459L21.0219 24.8146C21.0219 25.1896 20.6938 25.4709 20.3188 25.4709H9.6782C9.3032 25.4709 9.02195 25.1896 9.02195 24.8146V13.8459C9.02195 13.6115 8.88132 13.3771 8.64695 13.2365C8.5532 13.1427 8.41257 13.0959 8.27195 13.0959C8.13132 13.0959 8.03757 13.1427 7.94382 13.1427L4.75632 14.5021C4.4282 14.6896 4.00632 14.549 3.8657 14.2209L1.56882 9.53336C1.47507 9.34586 1.47507 9.20523 1.52195 9.01773C1.56882 8.87711 1.70945 8.73648 1.89695 8.64273L9.63132 4.65836C10.8032 5.87711 12.8188 6.58023 15.0219 6.58023C17.2251 6.58023 19.1938 5.87711 20.3657 4.65836L28.1001 8.64273C28.2876 8.73648 28.4282 8.87711 28.4751 9.01773C28.5219 9.20523 28.5219 9.34586 28.4282 9.53336Z" fill="#5C8EE6"></path>
  </symbol>
  <symbol fill="none" xmlns="http://www.w3.org/2000/svg" viewBox="0 0 30 30" id="car-cosm">
    <path d="M23.1406 16.8281L22.3906 13.5938C22.0625 12.2344 20.8906 11.25 19.4844 11.25H11.375C9.96875 11.25 8.75 12.2344 8.42188 13.5938L7.67188 16.9219C6.54688 17.4844 5.75 18.6562 5.75 20.0156V22.5938C5.75 23.5312 6.35938 24.375 7.25 24.6562V26.25C7.25 26.6719 7.57812 27 8 27C8.375 27 8.75 26.6719 8.75 26.25V24.75H22.25V26.25C22.25 26.6719 22.5781 27 23 27C23.375 27 23.75 26.6719 23.75 26.25V24.6562C24.6406 24.375 25.2031 23.5312 25.25 22.5938V20.0156C25.25 18.6562 24.4062 17.3906 23.1406 16.8281ZM9.875 13.9219C10.0625 13.2656 10.6719 12.75 11.375 12.75H19.4844C20.1875 12.75 20.7969 13.2656 20.9375 13.9219L21.5469 16.5H9.3125L9.875 13.9219ZM23.75 22.5938C23.75 22.9688 23.4219 23.25 23.0469 23.25H7.90625C7.53125 23.25 7.25 22.9688 7.25 22.5938V20.0156C7.25 18.9375 8.14062 18 9.21875 18H21.7344C22.8125 18 23.75 18.9375 23.75 20.0156V22.5938ZM20.75 19.5C20.0938 19.5 19.625 20.0156 19.625 20.625C19.625 21.2812 20.0938 21.75 20.75 21.75C21.3594 21.75 21.875 21.2812 21.875 20.625C21.875 20.0156 21.3594 19.5 20.75 19.5ZM10.25 19.5C9.59375 19.5 9.125 20.0156 9.125 20.625C9.125 21.2812 9.59375 21.75 10.25 21.75C10.8594 21.75 11.375 21.2812 11.375 20.625C11.375 20.0156 10.8594 19.5 10.25 19.5ZM8.75 10.5C9.96875 10.5 11.0469 9.9375 11.7031 9.04688H19.25C19.9062 9.9375 20.9844 10.5 22.25 10.5C24.3125 10.5 26 8.85938 26 6.75C26 4.6875 24.3125 3 22.25 3C20.9844 3 19.9062 3.60938 19.25 4.54688H11.7031C11.0469 3.60938 9.96875 3 8.75 3C6.64062 3 5 4.6875 5 6.75C5 8.85938 6.64062 10.5 8.75 10.5ZM6.59375 6C6.92188 5.15625 7.76562 4.5 8.75 4.5C9.40625 4.5 10.0625 4.875 10.5312 5.4375C10.8125 5.8125 11.2344 6.04688 11.7031 6.04688H19.25C19.7188 6.04688 20.1406 5.8125 20.4219 5.4375C20.8906 4.875 21.5469 4.5 22.25 4.5C23.1875 4.5 24.0312 5.15625 24.3594 6H22.25V7.5H24.3594C24.0312 8.39062 23.1875 9 22.25 9C21.5469 9 20.8906 8.67188 20.4219 8.10938C20.1406 7.73438 19.7188 7.54688 19.25 7.54688H11.7031C11.2344 7.54688 10.8125 7.73438 10.5312 8.10938C10.0625 8.67188 9.40625 9 8.75 9C7.76562 9 6.92188 8.39062 6.59375 7.5H8.75V6H6.59375Z" fill="#5C8EE6"></path>
  </symbol>
  <symbol fill="none" xmlns="http://www.w3.org/2000/svg" viewBox="0 0 30 30" id="cosmetic">
    <path d="M15 22.5C15.375 22.5 15.75 22.1719 15.75 21.75V20.25H17.25C17.625 20.25 18 19.9219 18 19.5C18 19.125 17.625 18.75 17.25 18.75H15.75V17.25C15.75 16.875 15.375 16.5 15 16.5C14.5781 16.5 14.25 16.875 14.25 17.25V18.75H12.75C12.3281 18.75 12 19.125 12 19.5C12 19.9219 12.3281 20.25 12.75 20.25H14.25V21.75C14.25 22.1719 14.5781 22.5 15 22.5ZM3.75 13.5C4.125 13.5 4.5 13.1719 4.5 12.75V10.5H6C6.375 10.5 6.75 10.1719 6.75 9.75C6.75 9.375 6.375 9 6 9H4.5V6.75C4.5 6.375 4.125 6 3.75 6C3.32812 6 3 6.375 3 6.75V9H0.75C0.328125 9 0 9.375 0 9.75C0 10.0781 0.328125 10.5 0.75 10.5H3V12.75C3 13.1719 3.32812 13.5 3.75 13.5ZM29.25 22.5H27V20.25C27 19.875 26.625 19.5 26.25 19.5C25.8281 19.5 25.5 19.875 25.5 20.25V22.5H23.25C22.8281 22.5 22.5 22.875 22.5 23.25C22.5 23.625 22.8281 24 23.25 24H25.5V26.25C25.5 26.6719 25.8281 27 26.25 27C26.625 27 27 26.6719 27 26.25V24H29.25C29.625 24 29.9531 23.6719 29.9531 23.2969C29.9531 22.9219 29.625 22.5 29.25 22.5ZM21.375 24.5625C20.8594 24.5625 20.0625 25.5 17.9531 25.5H13.2188C11.4375 25.5 9.79688 24.6562 8.76562 23.25L4.73438 17.9062C4.54688 17.6719 4.45312 17.4375 4.45312 17.1562C4.45312 16.5469 4.96875 16.125 5.53125 16.125C5.76562 16.125 6.14062 16.2188 6.42188 16.5938L8.01562 18.7031C8.29688 19.0781 8.76562 19.3125 9.1875 19.3125C9.375 19.3125 10.5 19.1719 10.5 18.0469C10.5 18.0469 10.5 18.0469 10.5 18V7.17188C10.5 6.60938 10.9219 6 11.625 6C12.2344 6 12.75 6.51562 12.75 7.125V14.25C12.75 14.3438 12.8438 15.0469 13.5 15.0469C13.875 15.0469 14.2031 14.6719 14.2031 14.2969V5.67188C14.2031 5.10938 14.625 4.5 15.3281 4.5C15.9375 4.5 16.4531 5.01562 16.4531 5.625V14.25C16.4531 14.3438 16.5469 15.0469 17.2031 15.0469C17.5781 15.0469 17.9531 14.6719 17.9531 14.2969V7.17188C17.9531 6.60938 18.375 6 19.0781 6C19.6875 6 20.2031 6.51562 20.2031 7.125V14.2031C20.2031 14.3438 20.2969 15 20.9531 15C21.3281 15 21.7031 14.6719 21.7031 14.2969V9.42188C21.7031 8.8125 22.125 8.25 22.8281 8.25C23.4375 8.25 23.9531 8.76562 23.9531 9.375V17.1094C23.9531 17.4844 24.2812 17.8594 24.7031 17.8594C25.0781 17.8594 25.5 17.4844 25.5 17.1094V9.46875C25.5 8.4375 24.7031 6.75 22.8281 6.75C22.4531 6.75 22.0781 6.84375 21.7031 6.98438C21.6562 5.625 20.4844 4.5 19.0781 4.5C18.6094 4.5 18.1875 4.64062 17.8125 4.82812C17.4844 3.79688 16.5 3 15.3281 3C14.1562 3 13.2188 3.79688 12.8438 4.875C12.4688 4.64062 12.0469 4.5 11.625 4.5C9.75 4.5 9 6.23438 9 7.26562V17.4375L7.54688 15.6094C7.07812 15 6.32812 14.625 5.53125 14.625C4.125 14.625 3 15.7031 3 17.1562C3 17.7188 3.14062 18.3281 3.51562 18.7969L7.59375 24.1406C8.85938 25.9219 10.9688 27 13.2188 27H18C19.5 27 22.125 26.2969 22.125 25.3125C22.125 25.0312 21.9375 24.5625 21.375 24.5625Z" fill="#5C8EE6"></path>
  </symbol>
  <symbol fill="none" xmlns="http://www.w3.org/2000/svg" viewBox="0 0 30 30" id="brush">
    <path d="M22.5 3H7.5C6.65625 3 6 3.70312 6 4.5V18C6 19.6875 7.3125 21 9 21H12V24C12 25.6875 13.3125 27 15 27C16.6406 27 18 25.6875 18 24V21H21C22.6406 21 24 19.6875 24 18V4.5C24 3.70312 23.2969 3 22.5 3ZM22.5 18C22.5 18.8438 21.7969 19.5 21 19.5H16.5V24C16.5 24.8438 15.7969 25.5 15 25.5C14.1562 25.5 13.5 24.8438 13.5 24V19.5H9C8.15625 19.5 7.5 18.8438 7.5 18V16.5H22.5V18ZM22.5 15H7.5V4.5H22.5V15Z" fill="#5C8EE6"></path>
  </symbol>
  <symbol fill="none" xmlns="http://www.w3.org/2000/svg" viewBox="0 0 30 30" id="eat">
    <path d="M14.2743 3.60938C14.1805 3.23438 13.8055 2.95312 13.3837 3.04688C12.9618 3.14062 12.7274 3.51562 12.8212 3.9375L13.8993 9.32812C14.3212 11.5781 13.5243 13.2188 11.5087 14.1094L11.0399 14.2969L11.4618 24.8906C11.4618 25.0781 11.4149 25.2656 11.2743 25.3594C11.2274 25.4531 11.1337 25.5 10.993 25.5H9.58678C9.44616 25.5 9.35241 25.4531 9.25866 25.3594C9.16491 25.2656 9.07116 25.0781 9.07116 24.9375L9.49303 14.2969L9.02428 14.1094C7.00866 13.1719 6.21178 11.5781 6.63366 9.375L7.75866 3.9375C7.80553 3.51562 7.57116 3.14062 7.14928 3.04688C6.77428 2.95312 6.35241 3.23438 6.25866 3.60938L5.13366 9.09375C4.61803 11.8125 5.60241 13.9688 7.94616 15.2344L7.57116 24.8906C7.57116 25.4062 7.75866 25.9688 8.13366 26.3906C8.50866 26.8125 9.02428 27 9.58678 27H10.993C11.5555 27 12.0243 26.8125 12.3993 26.3906C12.7743 25.9688 12.9618 25.4062 12.9618 24.8438L12.5868 15.2344C14.8837 14.0156 15.9149 11.7656 15.3993 9.04688L14.2743 3.60938ZM22.8524 3C21.3524 3 18.8212 5.0625 17.6962 7.73438C16.8993 9.60938 16.1024 13.3125 19.7587 17.2969L19.4305 24.75C19.3837 25.4062 19.618 26.0156 20.0399 26.4375C20.4149 26.8125 20.8837 27 21.3524 27H22.5712C23.6493 27 24.5399 26.0625 24.5399 24.8438V4.82812C24.5399 3.84375 23.7899 3 22.8524 3ZM23.0399 24.8438C23.0399 25.2656 22.7587 25.5 22.5712 25.5H21.3524C21.2587 25.5 21.1649 25.4531 21.118 25.4062C20.9774 25.2656 20.9305 25.0312 20.9305 24.8438L21.3055 16.7344L21.0712 16.5C17.9305 13.2188 18.2587 10.2656 19.0555 8.34375C20.1337 5.85938 22.243 4.5 22.8524 4.5C22.8993 4.5 23.0399 4.64062 23.0399 4.82812V24.8438ZM8.74303 11.25C8.74303 11.25 8.74303 11.25 8.78991 11.25C9.16491 11.25 9.49303 10.9688 9.49303 10.5469L9.86803 3.79688C9.91491 3.42188 9.58678 3.04688 9.16491 3.04688C8.78991 3 8.41491 3.32812 8.41491 3.75L8.03991 10.5C7.99303 10.875 8.32116 11.25 8.74303 11.25ZM11.7899 11.25C12.2118 11.25 12.5399 10.875 12.493 10.5L12.118 3.75C12.118 3.32812 11.7899 3 11.368 3.04688C10.9462 3.04688 10.618 3.42188 10.6649 3.79688L11.0399 10.5469C11.0399 10.9688 11.368 11.25 11.7899 11.25Z" fill="#5C8EE6"></path>
  </symbol>
  <symbol fill="none" xmlns="http://www.w3.org/2000/svg" viewBox="0 0 30 30" id="car">
    <path d="M14.75 8.95312C15.9688 8.95312 17 7.92188 17 6.70312C17 5.71875 15.8281 3.9375 15.3594 3.23438C15.2188 3.09375 14.9844 3 14.75 3C14.4688 3 14.2344 3.09375 14.0938 3.28125C13.625 3.98438 12.5 5.76562 12.5 6.70312C12.5 7.96875 13.4844 8.95312 14.75 8.95312ZM14.75 5.10938C15.1719 5.85938 15.4531 6.51562 15.5 6.70312C15.5 7.125 15.125 7.45312 14.75 7.45312C14.3281 7.45312 14 7.125 14 6.70312C14 6.46875 14.2812 5.8125 14.75 5.10938ZM21.5 8.95312C22.7188 8.95312 23.75 7.96875 23.75 6.70312C23.75 5.76562 22.5781 3.98438 22.1094 3.28125C21.9688 3.09375 21.7344 3 21.5 3C21.2188 3 20.9844 3.09375 20.8438 3.28125C20.375 3.98438 19.25 5.76562 19.25 6.70312C19.25 7.96875 20.2344 8.95312 21.5 8.95312ZM21.5 5.10938C21.9219 5.85938 22.2031 6.51562 22.25 6.70312C22.25 7.125 21.875 7.45312 21.5 7.45312C21.0781 7.45312 20.75 7.125 20.75 6.70312C20.75 6.46875 21.0312 5.8125 21.5 5.10938ZM8 8.95312C9.21875 8.95312 10.25 7.96875 10.25 6.70312C10.25 5.76562 9.07812 3.98438 8.60938 3.28125C8.46875 3.09375 8.23438 3 8 3C7.71875 3 7.48438 3.09375 7.34375 3.28125C6.875 3.98438 5.75 5.76562 5.75 6.70312C5.75 7.96875 6.73438 8.95312 8 8.95312ZM8 5.10938C8.42188 5.8125 8.70312 6.46875 8.75 6.70312C8.75 7.125 8.375 7.45312 8 7.45312C7.57812 7.45312 7.25 7.125 7.25 6.70312C7.25 6.46875 7.53125 5.8125 8 5.10938ZM20 19.4531C19.3438 19.4531 18.875 19.9688 18.875 20.5781C18.875 21.2344 19.3438 21.7031 20 21.7031C20.6094 21.7031 21.125 21.2344 21.125 20.5781C21.125 19.9688 20.6094 19.4531 20 19.4531ZM22.3906 16.7812L21.6406 13.5469C21.3125 12.1875 20.1406 11.2031 18.7344 11.2031H10.5781C9.21875 11.2031 8 12.1875 7.67188 13.5469L6.92188 16.875C5.79688 17.4375 5 18.6094 5 19.9688V22.5469C5 23.4844 5.60938 24.3281 6.5 24.6094V26.2031C6.5 26.625 6.82812 26.9531 7.25 26.9531C7.625 26.9531 8 26.625 8 26.2031V24.7031H21.5V26.2031C21.5 26.625 21.8281 26.9531 22.25 26.9531C22.625 26.9531 23 26.625 23 26.2031V24.6094C23.8906 24.3281 24.4531 23.4844 24.5 22.5469V19.9688C24.5 18.6094 23.6562 17.3438 22.3906 16.7812ZM9.125 13.875C9.3125 13.2188 9.92188 12.75 10.625 12.75H18.7344C19.4375 12.75 20.0469 13.2188 20.1875 13.875L20.7969 16.5H8.5625L9.125 13.875ZM23 22.5469C23 22.9219 22.6719 23.25 22.2969 23.25H7.15625C6.78125 23.2031 6.5 22.9219 6.5 22.5469V19.9688C6.5 18.8906 7.39062 18 8.46875 18H20.9844C22.0625 18 23 18.8906 23 19.9688V22.5469ZM9.5 19.4531C8.84375 19.4531 8.375 19.9688 8.375 20.5781C8.375 21.2344 8.84375 21.7031 9.5 21.7031C10.1094 21.7031 10.625 21.2344 10.625 20.5781C10.625 19.9688 10.1094 19.4531 9.5 19.4531Z" fill="#5C8EE6"></path>
  </symbol>
  <symbol fill="none" xmlns="http://www.w3.org/2000/svg" viewBox="0 0 30 30" id="him">
    <path d="M22.3393 12.375L19.6675 15H10.2456L17.6518 7.64062C17.9331 7.35938 17.9331 6.89062 17.6518 6.60938C17.3706 6.28125 16.855 6.28125 16.5737 6.60938L4.52683 18.6094C2.74558 20.4375 2.41746 23.3906 4.10496 25.3594C5.08933 26.4375 6.40183 27 7.76121 27C9.02683 27 10.2456 26.5312 11.1831 25.5938L23.4175 13.4062C23.6987 13.125 23.6987 12.6562 23.4175 12.375C23.1362 12.0469 22.6206 12.0469 22.3393 12.375ZM10.1518 24.5625C9.49558 25.1719 8.65183 25.5 7.76121 25.5C6.77683 25.5 5.88621 25.0781 5.22996 24.375C4.10496 23.0625 4.29246 21 5.60496 19.6875L8.74558 16.5H18.1675L10.1518 24.5625ZM26.7925 11.4844L18.5425 3.23438C18.4018 3.09375 18.2143 3 18.0268 3C17.7925 3 17.605 3.09375 17.4643 3.23438C17.1831 3.51562 17.1831 4.03125 17.4643 4.3125L25.7143 12.5625C25.855 12.7031 26.0425 12.75 26.2768 12.75C26.4643 12.75 26.6518 12.7031 26.7925 12.5625C27.0737 12.2812 27.0737 11.7656 26.7925 11.4844Z" fill="#5C8EE6"></path>
  </symbol>


  <symbol fill="none" xmlns="http://www.w3.org/2000/svg" id="sheild">
<path d="M11.9221 2.94626L7.41988 1.07035C7.27918 1.02345 7.13849 1 6.9978 1C6.83365 1 6.69296 1.02345 6.55227 1.07035L2.05007 2.94626C1.62799 3.13385 1.37005 3.53249 1.37005 3.97802C1.37005 8.64436 4.04323 11.8569 6.55227 12.9121C6.83365 13.0293 7.13849 13.0293 7.41988 12.9121C9.43649 12.0679 12.6255 9.18368 12.6255 3.97802C12.6255 3.53249 12.3442 3.13385 11.9221 2.94626ZM10.1616 5.72512L6.50537 9.14349C6.36467 9.30763 6.10673 9.30763 5.96604 9.14349L3.95613 7.37141C3.81544 7.23072 3.81544 6.99623 3.95613 6.85554L4.24087 6.5708C4.38156 6.43011 4.61605 6.43011 4.75675 6.5708L6.30254 7.91226L9.41607 4.97962C9.55677 4.83893 9.79126 4.83893 9.93195 4.97962L10.1616 5.20924C10.3023 5.34994 10.3023 5.58443 10.1616 5.72512Z" fill="#828A99"/>
</symbol>

<symbol fill="none" xmlns="http://www.w3.org/2000/svg" viewBox="0 0 52 11" id="ruso">
  <g clip-path="url(#clip0_129_565)">
    <path d="M13.4243 6.35301V0.251953H15.6153V6.27665C15.6153 7.69226 16.4376 8.66538 18.005 8.66538C19.5724 8.66538 20.3781 7.69129 20.3781 6.27665V0.251953H22.5847V6.33832C22.5847 8.86411 21.0927 10.5832 18.005 10.5832C14.9153 10.5832 13.4243 8.84845 13.4243 6.35301Z" fill="#828A99"></path>
      <path d="M27.791 8.96925L28.9619 7.3265C29.6775 8.07249 30.7877 8.69513 32.1877 8.69513C33.3752 8.69513 33.9528 8.14788 33.9528 7.56929C33.9528 5.77383 28.1102 7.00637 28.1102 3.18734C28.1102 1.49859 29.5708 0.0986328 31.9595 0.0986328C33.5729 0.0986328 34.9112 0.58519 35.9156 1.51425L34.7134 3.0963C33.893 2.33562 32.7966 1.98612 31.7618 1.98612C30.8337 1.98612 30.3168 2.39632 30.3168 3.00525C30.3168 4.61764 36.1437 3.53782 36.1437 7.3265C36.1437 9.18267 34.8202 10.5826 32.0819 10.5826C30.1347 10.5826 28.7348 9.92768 27.791 8.96925Z" fill="#828A99"></path>
      <path d="M41.2124 5.29241C41.2124 2.2086 43.467 0 46.5508 0C49.6493 0 51.9039 2.2086 51.9039 5.29241C51.9039 8.37525 49.6493 10.5838 46.5508 10.5838C43.467 10.5838 41.2124 8.37525 41.2124 5.29241ZM49.664 5.29241C49.664 3.37555 48.4373 1.9335 46.5508 1.9335C44.6643 1.9335 43.4523 3.37555 43.4523 5.29241C43.4523 7.19459 44.6643 8.65132 46.5508 8.65132C48.4373 8.65132 49.664 7.19459 49.664 5.29241Z" fill="#828A99"></path>
      <path d="M5.93463 6.5351C7.03012 6.27665 8.15693 5.31822 8.15693 3.52275C8.15693 1.63624 6.86369 0.251953 4.74809 0.251953H0V2.15315H2.16063H2.32118H4.42894C5.29633 2.15315 5.95029 2.67005 5.95029 3.52275C5.95029 4.37447 5.29535 4.89236 4.42894 4.89236H2.32118H2.16063H0.000978824V10.4001H2.16161V6.79453H3.74463L5.73687 10.4011H8.21763L5.93463 6.5351Z" fill="#828A99"></path>
  </g>
  <defs>
    <clipPath id="clip0_129_565">
      <rect width="52" height="11" fill="white"></rect>
    </clipPath>
  </defs>
</symbol>




 


</svg>